<?xml version="1.0" encoding="UTF-8" standalone="no"?>
<svg
   xmlns:dc="http://purl.org/dc/elements/1.1/"
   xmlns:cc="http://creativecommons.org/ns#"
   xmlns:rdf="http://www.w3.org/1999/02/22-rdf-syntax-ns#"
   xmlns:svg="http://www.w3.org/2000/svg"
   xmlns="http://www.w3.org/2000/svg"
   xmlns:sodipodi="http://sodipodi.sourceforge.net/DTD/sodipodi-0.dtd"
   xmlns:inkscape="http://www.inkscape.org/namespaces/inkscape"
   version="1.0"
   width="768"
   height="768"
   viewBox="0 0 7680 7680"
   preserveAspectRatio="xMidYMid meet"
   id="svg66"
   sodipodi:docname="petrus4.svg"
   inkscape:version="0.92.2 2405546, 2018-03-11">
  <metadata
     id="metadata72">
    <rdf:RDF>
      <cc:Work
         rdf:about="">
        <dc:format>image/svg+xml</dc:format>
        <dc:type
           rdf:resource="http://purl.org/dc/dcmitype/StillImage" />
        <dc:title></dc:title>
      </cc:Work>
    </rdf:RDF>
  </metadata>
  <defs
     id="defs70" />
  <sodipodi:namedview
     pagecolor="#ffffff"
     bordercolor="#666666"
     borderopacity="1"
     objecttolerance="10"
     gridtolerance="10"
     guidetolerance="10"
     inkscape:pageopacity="0"
     inkscape:pageshadow="2"
     inkscape:window-width="1920"
     inkscape:window-height="1040"
     id="namedview68"
     showgrid="false"
     inkscape:zoom="1.2291667"
     inkscape:cx="261.41752"
     inkscape:cy="380.43058"
     inkscape:window-x="0"
     inkscape:window-y="20"
     inkscape:window-maximized="0"
     inkscape:current-layer="svg66" />
  <g
     id="layer102"
     style="fill:#ffdd55;stroke:none">
    <path
       d="m 5180,5831 c -98,-21 -200,-103 -248,-201 l -27,-55 -3,-427 -3,-428 h 35 35 l 3,423 c 3,411 4,423 25,463 28,53 86,108 143,136 63,31 187,32 245,1 69,-37 132,-108 154,-173 8,-25 12,-156 11,-443 v -408 l 37,3 38,3 v 415 415 l -32,67 c -38,81 -107,152 -181,185 -56,26 -169,38 -232,24 z"
       id="path41"
       style="fill:#ffdd55"
       inkscape:connector-curvature="0" />
    <path
       d="m 6121,5829 c -100,-30 -220,-164 -221,-247 0,-19 30,-42 54,-42 2,0 9,20 16,46 16,56 89,140 145,165 53,25 157,25 210,0 101,-46 155,-130 155,-241 -1,-141 -69,-214 -291,-313 -164,-74 -234,-187 -195,-320 51,-175 275,-228 403,-95 17,18 35,45 38,60 6,23 3,28 -18,33 -21,6 -33,-1 -69,-38 -66,-69 -150,-81 -224,-32 -59,39 -84,147 -50,214 21,39 74,84 132,110 147,68 180,87 233,136 84,78 114,149 109,258 -4,97 -28,155 -92,220 -62,64 -124,90 -221,94 -44,1 -95,-2 -114,-8 z"
       id="path43"
       style="fill:#ffdd55"
       inkscape:connector-curvature="0" />
    <path
       d="m 1370,5274 v -556 l 178,4 c 172,3 179,4 232,31 76,40 135,100 173,177 29,59 32,73 32,155 -1,71 -5,100 -23,139 -48,106 -143,187 -250,212 -31,8 -105,14 -164,14 h -108 v 190 190 h -35 -35 z m 371,79 c 26,-12 66,-40 89,-63 59,-59 84,-119 84,-205 0,-91 -29,-160 -94,-218 -68,-62 -121,-77 -262,-77 h -118 v 296 297 l 128,-5 c 99,-4 137,-9 173,-25 z"
       id="path45"
       style="fill:#ffdd55"
       inkscape:connector-curvature="0" />
    <path
       d="m 2260,5275 v -555 h 280 280 v 35 35 h -245 -245 v 225 225 h 245 245 v 35 35 h -245 -245 v 225 225 h 245 245 v 35 35 h -280 -280 z"
       id="path47"
       style="fill:#ffdd55"
       inkscape:connector-curvature="0" />
    <path
       d="m 3370,5310 v -520 h -140 -140 v -35 -35 h 310 310 v 35 35 h -139 -138 l -2,498 c -1,273 -1,507 -1,520 0,18 -6,22 -30,22 h -30 z"
       id="path49"
       style="fill:#ffdd55"
       inkscape:connector-curvature="0" />
    <path
       d="m 3990,5274 v -556 l 173,4 c 160,3 176,5 227,29 67,31 142,104 178,173 24,46 27,61 27,156 0,97 -2,110 -30,163 -35,70 -115,147 -180,173 -29,13 -43,24 -40,33 3,7 57,93 120,191 63,97 115,180 115,184 0,3 -18,6 -39,6 -44,0 -26,23 -195,-242 l -88,-138 h -99 -99 v 190 190 h -35 -35 z m 374,75 c 182,-91 223,-328 82,-472 -68,-69 -104,-81 -253,-85 l -133,-4 v 290 c 0,223 3,291 13,295 6,3 65,3 131,1 93,-4 127,-9 160,-25 z"
       id="path51"
       style="fill:#ffdd55"
       inkscape:connector-curvature="0" />
    <path
       d="m 2904,4481 c -39,-24 -75,-71 -103,-134 -19,-45 -76,-237 -83,-282 -2,-14 -20,3 -73,70 -169,218 -289,305 -433,313 -68,4 -80,2 -104,-18 -37,-29 -38,-86 -2,-157 26,-54 93,-123 119,-123 23,0 18,14 -15,38 -37,28 -90,118 -90,155 0,72 85,88 191,35 75,-37 195,-152 312,-298 l 76,-95 -32,-5 c -40,-6 -47,-33 -13,-55 21,-14 31,-15 58,-6 17,6 35,8 38,4 4,-5 31,-35 60,-68 125,-141 229,-192 206,-99 -8,29 -26,32 -26,4 0,-44 -39,-14 -130,101 l -72,92 113,-5 c 140,-7 204,-27 267,-84 85,-75 93,-156 21,-217 -56,-48 -130,-67 -268,-67 -143,0 -239,23 -380,91 -155,76 -231,161 -231,260 0,33 4,41 25,49 61,23 173,-29 252,-119 34,-38 43,-29 19,17 -38,73 -146,134 -249,140 -116,7 -141,-32 -97,-150 47,-126 207,-245 392,-293 187,-48 436,-37 557,24 50,26 98,82 106,124 17,90 -56,192 -169,235 -89,34 -228,55 -313,48 l -72,-7 18,63 c 67,232 89,283 144,342 55,57 100,46 136,-34 14,-31 17,-49 10,-61 -16,-30 -10,-64 21,-125 35,-72 127,-170 194,-209 53,-31 122,-39 149,-16 37,30 12,111 -46,155 -47,36 -160,87 -207,93 -36,5 -40,9 -46,41 -9,47 12,86 50,90 59,7 132,-44 309,-217 93,-91 175,-170 181,-176 6,-5 37,-34 69,-62 62,-56 90,-65 106,-34 8,15 4,28 -19,62 -28,42 -40,82 -83,292 -8,37 -11,67 -7,67 18,0 97,-33 115,-48 11,-9 29,-34 40,-56 50,-96 214,-226 285,-226 90,0 94,104 5,173 -48,38 -156,88 -205,94 -36,5 -40,9 -46,41 -9,47 12,86 50,90 49,6 134,-47 231,-143 96,-95 191,-223 206,-279 14,-49 47,-88 73,-84 32,5 31,38 -3,88 -17,25 -31,48 -31,52 0,19 45,18 87,-3 45,-22 71,-19 80,7 2,6 -26,48 -63,95 -75,94 -103,149 -104,196 0,99 114,73 253,-57 59,-56 78,-81 96,-127 39,-105 65,-148 91,-148 48,0 46,24 -13,166 -61,147 -74,189 -60,189 16,0 144,-94 207,-151 117,-107 146,-191 85,-251 -38,-39 -26,-55 25,-34 88,37 69,156 -46,282 -65,71 -199,178 -257,205 -42,20 -47,20 -78,5 -37,-17 -39,-31 -18,-91 8,-22 15,-41 15,-43 0,-2 -19,14 -42,36 -67,64 -142,105 -203,110 -47,4 -57,1 -79,-21 -23,-23 -26,-35 -26,-90 0,-55 6,-76 38,-141 22,-43 33,-76 27,-76 -7,0 -20,-9 -30,-20 -17,-19 -19,-17 -86,69 -84,109 -138,165 -209,217 -93,68 -174,90 -235,62 -27,-12 -55,-54 -55,-81 0,-12 -12,-10 -57,9 -32,13 -63,24 -70,24 -6,0 -27,9 -45,19 -83,48 -163,35 -203,-33 -14,-24 -25,-50 -25,-59 0,-25 -10,-21 -75,34 -88,73 -137,94 -216,94 -66,0 -67,0 -78,32 -7,17 -30,47 -51,67 -46,42 -87,47 -136,17 z m 750,-213 c 17,-16 32,-47 45,-98 24,-93 44,-221 35,-229 -3,-3 -55,45 -115,106 -94,98 -109,117 -109,146 0,36 12,55 50,81 34,22 64,20 94,-6 z m -391,-119 c 94,-48 178,-140 145,-160 -21,-14 -32,-11 -81,22 -47,31 -147,133 -147,150 0,16 39,10 83,-12 z m 800,0 c 57,-29 118,-80 139,-117 16,-27 16,-31 2,-42 -12,-11 -21,-10 -47,2 -40,19 -116,86 -157,138 l -32,40 h 27 c 14,0 45,-10 68,-21 z"
       id="path53"
       style="fill:#ffdd55"
       inkscape:connector-curvature="0" />
    <path
       d="m 5161,4334 c -25,-21 -31,-33 -31,-67 0,-64 36,-125 129,-217 91,-91 148,-126 223,-136 41,-6 49,-3 72,19 14,14 33,27 42,29 9,2 22,10 27,20 9,13 -2,35 -51,110 -81,123 -106,181 -92,208 13,24 37,20 82,-12 32,-22 178,-178 178,-190 0,-4 5,-8 10,-8 22,0 7,35 -39,94 -83,104 -162,166 -212,166 -42,0 -80,-38 -82,-81 l -2,-36 -50,45 c -99,89 -149,103 -204,56 z m 100,-20 c 17,-8 49,-32 71,-52 43,-38 218,-266 218,-283 0,-5 -7,-12 -15,-15 -76,-30 -345,216 -345,315 0,52 20,62 71,35 z"
       id="path55"
       style="fill:#ffdd55"
       inkscape:connector-curvature="0" />
    <path
       d="m 3879,3525 c -269,-119 -496,-274 -585,-397 -75,-105 -75,-105 -74,-517 1,-201 1,-384 0,-405 0,-32 -7,-46 -39,-77 -37,-34 -43,-37 -77,-29 -49,11 -75,39 -76,80 -1,37 38,80 73,80 22,0 59,-33 59,-53 0,-17 -37,-57 -52,-57 -6,0 -3,9 7,20 18,19 18,22 2,37 -16,16 -18,16 -34,1 -14,-14 -15,-22 -5,-43 14,-31 44,-32 72,-3 58,63 -18,144 -90,96 -42,-29 -56,-68 -39,-109 29,-72 112,-84 177,-26 12,11 22,16 22,10 0,-19 -59,-62 -95,-69 -50,-9 -91,4 -120,38 -14,16 -25,33 -26,36 -13,90 -1,133 47,171 34,26 79,27 122,1 18,-11 34,-20 35,-20 3,0 2,35 -2,82 -1,11 -7,15 -21,11 -23,-6 -39,22 -22,39 8,8 15,8 25,-1 23,-19 25,1 26,215 1,218 -5,249 -49,249 -18,0 -26,-6 -28,-23 -4,-27 22,-40 43,-22 13,11 15,-2 15,-108 0,-155 -20,-224 -88,-303 -27,-31 -58,-70 -70,-85 -12,-16 3,23 33,87 61,128 77,207 55,273 -12,38 -51,59 -72,38 -19,-19 -1,-43 29,-40 27,3 28,2 31,-55 4,-68 -16,-135 -64,-223 -43,-78 -74,-167 -74,-213 1,-47 31,-112 65,-139 47,-37 142,-27 193,20 l 22,21 v -131 -132 h 156 c 103,0 153,-3 149,-10 -9,-15 -112,-66 -158,-78 -31,-9 -39,-8 -44,4 -8,22 -33,17 -33,-7 0,-20 4,-21 48,-17 26,3 79,20 117,39 39,19 72,35 75,37 3,1 6,-7 7,-18 2,-17 -16,-30 -90,-66 -90,-45 -94,-45 -173,-42 -87,5 -127,21 -137,57 -3,11 1,28 8,38 13,17 14,17 27,0 13,-17 15,-17 27,-4 17,21 -2,55 -35,63 -38,10 -68,-23 -59,-65 12,-55 49,-88 113,-102 86,-18 151,-7 239,41 l 76,41 -7,-41 c -6,-38 6,-56 17,-25 9,22 122,75 161,75 19,0 38,5 42,12 13,20 -90,1 -145,-27 -48,-24 -51,-24 -51,-6 0,41 142,98 217,87 105,-14 182,-77 137,-111 -18,-14 -18,-16 -1,-29 24,-18 21,-31 -9,-55 -35,-27 -93,-27 -128,0 -51,40 -21,133 39,122 27,-6 41,-31 25,-47 -8,-8 -15,-6 -25,7 -13,18 -14,18 -24,-1 -21,-39 14,-71 59,-57 54,17 23,107 -38,113 -66,7 -107,-81 -64,-135 39,-49 141,-47 182,4 11,14 20,20 20,14 0,-18 -56,-71 -74,-71 -31,0 -16,-19 20,-26 29,-5 39,-13 51,-42 l 15,-36 16,33 c 8,18 23,35 31,38 9,2 27,9 41,15 24,9 23,10 -16,28 -23,10 -44,25 -47,35 -11,27 -8,29 11,5 34,-42 138,-43 176,-1 26,28 23,87 -5,117 -43,46 -119,21 -119,-40 0,-37 15,-56 46,-56 30,0 48,24 40,55 -7,27 -26,35 -26,10 0,-8 -7,-15 -15,-15 -21,0 -19,37 3,48 22,12 58,-1 71,-27 30,-54 -11,-111 -79,-111 -33,0 -48,6 -73,32 -27,27 -29,33 -14,36 21,4 23,42 2,42 -22,0 -19,14 11,49 33,39 118,66 182,57 71,-10 159,-53 165,-82 2,-13 3,-24 1,-24 -2,0 -23,11 -47,24 -49,28 -147,46 -147,27 0,-6 17,-11 38,-11 46,0 162,-55 162,-76 0,-8 7,-14 15,-14 17,0 20,16 5,25 -5,3 -10,17 -10,30 0,25 0,25 83,-18 78,-40 87,-42 167,-42 71,0 91,4 121,23 64,39 80,127 27,146 -22,8 -32,6 -48,-9 -22,-20 -26,-50 -9,-60 6,-4 16,1 23,11 24,33 51,-17 28,-53 -15,-24 -82,-43 -151,-43 -63,0 -79,4 -153,43 -62,32 -84,49 -86,66 -4,22 -3,22 55,-7 87,-44 117,-54 154,-50 36,3 48,30 17,36 -11,2 -18,-3 -18,-12 0,-9 -2,-16 -3,-16 -17,0 -126,44 -164,67 l -48,28 163,3 162,2 2,133 c 0,72 0,141 -1,151 -1,16 3,15 23,-9 20,-23 35,-29 78,-33 51,-4 56,-2 81,28 46,54 33,120 -29,146 -44,18 -84,3 -98,-39 -17,-48 43,-107 79,-77 31,25 6,84 -26,64 -13,-8 -11,-42 4,-47 6,-2 9,-8 5,-12 -10,-11 -45,21 -51,46 -6,23 24,59 48,59 29,0 64,-23 75,-49 30,-75 -69,-143 -138,-95 -51,36 -52,42 -52,487 v 413 l -26,53 c -48,96 -188,220 -367,325 -102,60 -320,166 -340,166 -7,0 -46,-16 -88,-35 z m 229,-58 c 223,-112 360,-204 460,-312 110,-117 102,-60 102,-710 v -565 h -710 -711 l 3,558 3,557 24,49 c 37,76 152,189 271,268 100,66 390,218 418,218 7,0 70,-29 140,-63 z M 3659,1835 c -20,-7 -50,-20 -67,-29 l -32,-17 v 31 30 l 68,-1 h 67 z m 289,-11 c -9,-20 -9,-30 0,-45 15,-23 15,-29 2,-29 -5,0 -10,6 -10,13 0,21 -41,55 -85,71 l -40,15 h 72 l 73,1 z m 141,17 c -57,-18 -91,-45 -111,-91 -5,-11 -7,-10 -7,6 -1,11 4,25 11,32 9,9 9,15 0,24 -29,29 -13,38 61,37 50,0 64,-3 46,-8 z m 273,-21 c -3,-23 -7,-28 -17,-20 -7,6 -37,19 -66,29 l -54,20 h 71 l 71,1 z m -392,-20 c 0,-5 -4,-10 -10,-10 -5,0 -10,5 -10,10 0,6 5,10 10,10 6,0 10,-4 10,-10 z m 143,-122 c -2,-5 -10,-8 -18,-8 -8,0 -16,3 -18,8 -3,4 5,7 18,7 13,0 21,-3 18,-7 z m -276,-5 c -4,-3 -10,-3 -14,0 -3,4 0,7 7,7 7,0 10,-3 7,-7 z m 157,-72 21,-24 -22,12 c -13,6 -23,17 -23,23 0,6 -10,2 -23,-10 -33,-31 -45,-27 -13,4 14,15 26,32 27,38 0,6 3,4 6,-4 3,-8 15,-26 27,-39 z m -19,-39 c 0,-18 -20,-15 -23,4 -3,10 1,15 10,12 7,-3 13,-10 13,-16 z"
       id="path57"
       style="fill:#ffdd55"
       inkscape:connector-curvature="0" />
    <path
       d="m 3860,3356 c -261,-120 -422,-242 -486,-368 l -24,-47 v -476 -475 h 610 610 v 476 476 l -32,60 c -37,71 -111,140 -231,220 -82,54 -324,179 -343,177 -5,0 -52,-20 -104,-43 z m 260,-74 c 194,-100 343,-221 388,-314 22,-43 22,-54 22,-491 v -447 h -570 -570 v 447 c 0,439 0,447 22,492 48,100 208,224 427,330 l 123,60 37,-17 c 20,-9 74,-36 121,-60 z"
       id="path59"
       style="fill:#ffdd55"
       inkscape:connector-curvature="0" />
    <path
       d="m 3810,3111 c -84,-18 -130,-65 -130,-134 0,-46 48,-100 125,-140 55,-30 60,-35 65,-72 10,-76 -5,-92 -53,-55 -23,19 -57,27 -57,15 0,-15 84,-115 96,-115 8,0 14,-4 14,-10 0,-18 -35,-11 -70,15 -31,23 -50,25 -50,5 0,-13 90,-109 108,-114 14,-5 18,-19 19,-76 1,-69 20,-120 43,-120 6,0 10,-4 10,-9 0,-5 -17,-10 -37,-11 -151,-10 -193,6 -193,71 0,30 5,42 26,55 22,15 31,16 61,5 43,-16 53,-7 23,19 -38,33 -110,30 -157,-6 -84,-64 -51,-220 53,-254 34,-12 53,-11 260,6 73,6 86,4 122,-16 l 39,-22 73,68 c 40,38 81,87 91,109 24,53 24,138 0,192 -28,61 -97,131 -161,163 -60,30 -81,31 -112,3 -20,-18 -21,-18 -13,5 11,37 -13,81 -56,103 -22,11 -39,20 -39,22 0,1 31,3 68,4 38,1 81,7 97,13 25,10 32,7 62,-22 23,-23 36,-29 44,-21 16,16 -99,176 -120,168 -132,-51 -287,-43 -321,18 -19,33 -1,70 44,89 63,26 226,4 226,-31 0,-13 43,-22 54,-11 15,15 -39,65 -82,78 -54,15 -132,21 -172,13 z m 370,-519 c 16,-16 32,-46 36,-66 12,-65 -10,-111 -92,-195 -41,-42 -74,-79 -74,-83 0,-19 -21,-5 -35,22 -11,22 -15,63 -15,165 v 137 l 41,-33 c 43,-34 58,-30 59,16 0,24 26,65 41,65 6,0 23,-13 39,-28 z"
       id="path61"
       style="fill:#ffdd55"
       inkscape:connector-curvature="0" />
    <path
       d="m 4756,2874 c -14,-13 -16,-49 -16,-235 v -219 l 22,3 c 17,1 24,-4 26,-22 3,-21 1,-23 -22,-17 -25,6 -26,5 -26,-44 0,-27 3,-50 6,-50 3,0 17,9 31,20 45,35 120,19 153,-33 19,-31 30,-76 20,-82 -5,-3 -7,-11 -4,-19 8,-20 -12,-61 -43,-91 -25,-23 -34,-26 -81,-22 -33,2 -63,12 -82,26 -17,12 -30,18 -30,14 1,-21 58,-47 110,-51 49,-4 60,-1 87,22 83,70 86,168 9,316 -55,107 -86,197 -86,252 0,53 8,66 40,64 32,-1 36,37 4,42 -38,5 -59,-33 -58,-103 2,-75 24,-145 76,-242 21,-39 38,-74 38,-78 0,-4 -16,15 -36,42 -21,26 -52,65 -70,85 -47,52 -66,122 -71,266 l -5,123 24,-6 c 32,-8 57,18 38,40 -16,19 -35,19 -54,-1 z"
       id="path63"
       style="fill:#ffdd55"
       inkscape:connector-curvature="0" />
  </g>
</svg>
