<!DOCTYPE svg PUBLIC "-//W3C//DTD SVG 20010904//EN" "http://www.w3.org/TR/2001/REC-SVG-20010904/DTD/svg10.dtd">
<svg version="1.0" xmlns="http://www.w3.org/2000/svg" width="768px" height="768px" viewBox="0 0 7680 7680" preserveAspectRatio="xMidYMid meet">
<g id="layer101" fill="#0e0e0e" stroke="none">
 <path d="M0 3840 l0 -3840 3840 0 3840 0 0 3840 0 3840 -3840 0 -3840 0 0 -3840z m5412 1957 c72 -33 134 -96 171 -175 l32 -67 3 -412 3 -413 -31 0 -30 0 0 403 c1 283 -3 412 -11 437 -22 66 -93 145 -164 183 -58 31 -182 30 -246 -1 -58 -29 -122 -90 -151 -145 -23 -41 -23 -48 -26 -459 l-3 -418 -24 0 -25 0 0 410 c0 389 1 412 21 465 37 100 146 194 249 216 64 14 176 2 232 -24z m953 3 c108 -52 168 -148 173 -277 4 -71 1 -88 -24 -142 -18 -42 -45 -78 -81 -111 -49 -45 -81 -63 -228 -131 -57 -26 -120 -80 -141 -120 -22 -44 -18 -130 9 -169 70 -103 186 -113 276 -24 48 49 78 54 73 14 -6 -54 -103 -119 -183 -122 -115 -5 -205 56 -235 160 -38 131 25 237 186 309 129 58 160 77 212 127 66 64 88 113 88 196 0 112 -60 204 -164 251 -54 25 -157 25 -211 0 -53 -24 -138 -117 -153 -169 -10 -33 -16 -39 -32 -35 -56 15 16 155 114 223 59 40 99 50 191 47 60 -2 93 -9 130 -27z m-4933 -167 l3 -188 135 -6 c74 -4 150 -12 168 -17 52 -17 129 -70 162 -112 56 -71 74 -125 75 -225 0 -82 -3 -97 -32 -155 -38 -77 -87 -127 -163 -166 -53 -28 -60 -29 -227 -32 l-173 -4 0 546 0 546 25 0 25 0 2 -187z m1378 162 l0 -25 -242 -2 -243 -3 0 -230 0 -230 243 -3 242 -2 0 -25 0 -25 -242 -2 -243 -3 0 -230 0 -230 243 -3 242 -2 0 -25 0 -25 -270 0 -270 0 0 545 0 545 270 0 270 0 0 -25z m610 8 c0 -10 1 -243 2 -518 l3 -500 138 -3 137 -3 0 -24 0 -25 -300 0 -300 0 0 25 0 24 138 3 137 3 3 518 c2 509 2 517 22 517 12 0 20 -7 20 -17z m632 -170 l3 -188 103 -3 102 -3 88 136 c48 74 103 160 121 190 31 49 39 55 69 55 18 0 31 -4 28 -9 -4 -5 -58 -89 -121 -187 -63 -98 -115 -181 -115 -185 0 -4 24 -19 54 -32 73 -34 136 -94 172 -164 27 -53 29 -67 29 -163 0 -94 -3 -110 -27 -155 -36 -69 -101 -133 -168 -164 -51 -24 -67 -26 -222 -29 l-168 -4 0 546 0 546 25 0 25 0 2 -187z m-1021 -1170 c17 -15 40 -45 50 -67 l18 -40 68 -1 c81 0 129 -21 220 -96 60 -49 83 -55 83 -22 0 8 10 33 22 54 35 63 116 75 196 28 18 -10 39 -19 45 -19 7 0 38 -11 70 -24 53 -22 59 -23 64 -8 23 75 44 92 108 92 105 0 237 -100 383 -292 65 -86 67 -87 87 -69 11 10 27 21 36 24 14 5 11 17 -22 82 -33 65 -39 87 -39 141 0 51 4 68 20 84 47 47 163 11 265 -81 29 -27 56 -46 59 -41 3 5 -1 26 -9 48 -20 57 -18 70 13 83 22 9 35 9 63 -3 85 -35 254 -182 310 -269 43 -66 54 -104 44 -154 -5 -27 -13 -38 -40 -49 -49 -20 -51 -18 -16 21 61 70 33 146 -93 262 -87 80 -201 158 -216 148 -16 -10 -8 -37 57 -193 30 -73 52 -139 49 -147 -3 -8 -14 -15 -24 -15 -20 0 -64 79 -91 162 -15 45 -150 176 -213 207 -70 33 -103 36 -127 12 -45 -45 -21 -119 83 -250 36 -46 66 -88 66 -93 0 -20 -32 -19 -76 2 -37 18 -50 20 -70 11 -30 -13 -30 -17 6 -70 35 -52 39 -81 10 -81 -21 0 -60 52 -60 80 0 32 -118 189 -209 280 -98 97 -181 150 -233 150 -31 0 -68 -41 -68 -76 0 -50 16 -71 59 -77 50 -6 162 -57 204 -93 41 -34 56 -61 57 -102 0 -40 -31 -58 -84 -48 -76 14 -203 124 -254 219 -24 46 -57 73 -113 92 -64 23 -69 18 -52 -62 43 -209 55 -250 83 -291 16 -24 26 -50 23 -58 -16 -41 -59 -7 -353 281 -214 208 -298 254 -349 189 -23 -29 -26 -59 -12 -97 7 -19 19 -25 53 -30 24 -3 81 -25 128 -49 94 -48 130 -88 130 -145 0 -27 -5 -35 -26 -43 -85 -33 -252 89 -320 235 -25 54 -30 86 -15 114 7 12 4 31 -10 62 -23 51 -54 78 -88 79 -29 0 -92 -62 -123 -123 -25 -50 -108 -319 -101 -330 2 -4 37 -5 76 -1 85 7 224 -14 312 -48 184 -70 219 -259 64 -339 -151 -77 -476 -71 -667 13 -79 35 -176 103 -216 151 -43 53 -76 131 -76 182 0 46 25 58 109 53 99 -6 202 -62 237 -130 10 -20 1 -15 -37 22 -62 60 -123 91 -182 93 -56 2 -77 -15 -77 -63 0 -99 84 -192 241 -269 141 -68 237 -91 380 -91 143 0 213 18 274 72 51 45 64 87 43 143 -18 53 -103 127 -169 149 -59 20 -265 35 -278 20 -10 -11 129 -187 166 -211 24 -16 26 -16 39 2 13 18 14 18 14 -3 0 -56 -83 -6 -189 113 -30 33 -59 66 -65 73 -9 9 -19 10 -43 1 -23 -7 -37 -7 -52 1 -32 16 -26 40 8 40 17 0 32 3 35 8 7 12 -139 189 -238 288 -105 104 -190 154 -263 154 -53 0 -93 -33 -93 -77 0 -36 50 -123 90 -157 17 -14 27 -26 21 -26 -6 0 -26 14 -45 30 -46 41 -86 123 -86 177 0 62 27 77 125 71 142 -9 249 -87 419 -301 73 -92 96 -109 96 -68 0 27 58 223 82 278 58 133 144 178 219 116z m2254 -132 c17 -10 54 -39 83 -65 28 -27 52 -46 53 -44 0 1 2 21 4 43 8 79 71 96 151 42 47 -32 174 -172 174 -191 0 -5 -36 30 -81 77 -122 131 -166 156 -194 113 -15 -23 -15 -28 5 -73 11 -26 48 -90 82 -140 59 -91 68 -123 32 -123 -9 0 -28 -12 -41 -26 -22 -24 -29 -26 -71 -20 -74 10 -131 44 -218 131 -88 87 -124 149 -124 212 0 33 6 46 26 62 33 26 79 27 119 2z m-1191 -835 c295 -139 506 -298 570 -429 l26 -52 1 -573 c0 -316 -1 -576 -4 -578 -2 -2 -105 -4 -229 -4 -124 -1 -228 -3 -231 -7 -8 -7 -102 -7 -114 0 -14 9 -291 8 -297 -1 -5 -9 -111 -6 -126 3 -6 4 -41 6 -78 5 -142 -4 -372 0 -372 8 0 4 323 7 717 7 l718 0 3 568 c3 655 11 594 -105 718 -109 115 -285 232 -510 338 l-92 44 -53 -23 c-219 -93 -439 -232 -549 -347 -128 -134 -123 -115 -129 -543 l-6 -365 -2 357 c-2 326 0 362 16 406 50 132 208 271 456 401 110 59 245 120 263 121 6 0 63 -24 127 -54z m1 -166 c229 -112 378 -225 433 -328 l32 -60 0 -471 0 -471 -600 0 -600 0 0 470 c0 460 0 472 21 513 49 97 139 178 298 270 81 47 266 135 285 136 4 1 64 -26 131 -59z m-932 -457 c9 -9 -12 -33 -29 -33 -8 0 -14 9 -14 20 0 19 28 28 43 13z m1643 -4 c10 -17 -12 -32 -36 -24 -17 5 -19 10 -9 21 14 17 35 18 45 3z m-1728 -141 c8 -10 3 -14 -19 -15 -20 -2 -29 2 -29 12 0 18 34 20 48 3z m1812 -3 c0 -10 -9 -14 -29 -12 -22 1 -27 5 -19 15 14 17 48 15 48 -3z m-1711 -210 c-1 -76 -3 -85 -19 -80 -21 7 -44 -19 -36 -41 3 -9 15 -18 26 -21 21 -6 21 -6 25 -40 3 -27 -1 -27 -35 -8 -56 32 -118 10 -162 -59 -11 -17 -17 -23 -14 -13 3 11 9 30 12 43 3 13 10 22 14 19 6 -4 37 32 132 152 15 19 32 57 39 84 7 27 14 49 16 49 2 0 3 -38 2 -85z m1663 -97 c31 -36 62 -76 68 -88 6 -11 15 -18 20 -15 11 7 15 -1 24 -40 l7 -30 -20 29 c-43 64 -115 84 -165 45 l-26 -20 0 39 c0 35 3 39 20 35 13 -3 22 1 26 12 9 22 -9 50 -30 49 -13 -2 -16 10 -16 75 l1 76 17 -50 c10 -29 41 -78 74 -117z m-1603 -245 c0 -47 -3 -62 -9 -47 -7 18 -2 114 6 114 2 0 4 -30 3 -67z m-124 27 c10 -16 -16 -43 -28 -31 -11 11 -2 41 12 41 5 0 13 -5 16 -10z m1723 -20 c3 -21 2 -22 -12 -11 -19 16 -21 44 -3 39 6 -3 14 -15 15 -28z m-1644 -356 c17 -17 20 -27 9 -37 -3 -4 -12 1 -20 11 -12 16 -14 16 -32 -5 -19 -23 -31 -21 -31 7 0 37 46 53 74 24z m1590 10 c11 -4 16 -18 15 -43 0 -30 -2 -33 -9 -15 -13 32 -29 38 -51 18 -18 -16 -19 -16 -19 2 0 35 28 52 64 38z m-712 -99 c-5 -29 20 -44 43 -25 12 10 15 10 15 -2 0 -10 -11 -15 -35 -15 -31 0 -35 3 -35 27 0 22 7 40 15 40 1 0 0 -11 -3 -25z m-87 -7 c32 -14 32 -22 -1 -36 -16 -8 -22 -17 -18 -25 4 -6 -6 -1 -22 13 -16 14 -31 26 -33 28 -5 3 31 31 41 32 4 0 19 -5 33 -12z m-118 -32 c-3 -8 -18 -13 -36 -12 -34 2 -46 10 -36 26 5 8 11 8 21 -1 12 -10 18 -9 32 5 17 17 28 7 19 -18z m116 -110 c9 -7 17 -17 17 -21 0 -5 -9 0 -21 11 -20 18 -21 18 -35 -1 -8 -10 -14 -14 -14 -9 0 11 21 34 30 34 3 0 13 -7 23 -14z m57 -7 c0 -5 -6 -9 -13 -9 -8 0 -14 6 -14 14 0 8 6 12 14 9 7 -3 13 -9 13 -14z"/>
 <path d="M1435 5379 c-3 -8 -4 -145 -3 -304 l3 -290 119 -3 c146 -3 196 11 272 80 69 64 98 130 98 223 0 88 -25 147 -89 210 -71 72 -117 87 -267 93 -103 4 -129 2 -133 -9z"/>
 <path d="M4066 5377 c-15 -11 -16 -42 -14 -302 l3 -290 135 0 c155 0 187 11 262 88 118 121 119 304 1 419 -76 73 -112 87 -251 92 -85 4 -124 2 -136 -7z"/>
 <path d="M3549 4275 c-40 -27 -49 -42 -49 -86 0 -24 21 -51 114 -147 133 -136 143 -138 125 -21 -21 139 -47 222 -79 252 -37 33 -65 34 -111 2z"/>
 <path d="M3175 4170 c-12 -20 81 -122 159 -174 44 -30 55 -31 80 -13 17 13 17 16 2 44 -41 80 -216 183 -241 143z"/>
 <path d="M3965 4170 c-9 -14 153 -173 193 -189 30 -13 35 -12 53 6 19 19 19 19 -9 59 -63 86 -212 164 -237 124z"/>
 <path d="M5190 4321 c-25 -48 4 -115 89 -204 114 -120 229 -188 266 -157 8 7 15 16 15 21 0 16 -178 245 -222 286 -77 70 -129 89 -148 54z"/>
 <path d="M3839 3309 c-220 -107 -388 -238 -437 -340 -22 -45 -22 -51 -20 -495 l3 -449 575 0 575 0 3 449 c2 444 2 450 -20 494 -55 115 -262 268 -519 384 l-37 17 -123 -60z m143 -221 c38 -11 87 -53 75 -64 -4 -4 -25 6 -47 21 -91 63 -241 52 -280 -20 -12 -23 -12 -30 1 -53 20 -37 62 -55 135 -60 52 -4 136 10 194 32 10 4 31 -18 68 -70 58 -83 61 -107 8 -55 -29 28 -36 31 -61 21 -15 -6 -58 -12 -94 -15 -36 -2 -68 -7 -70 -12 -2 -4 12 -17 32 -28 39 -21 63 -64 53 -91 -10 -26 4 -37 24 -19 28 26 51 25 111 -6 101 -50 168 -149 169 -246 0 -79 -23 -124 -103 -198 l-71 -66 -39 22 c-35 19 -48 21 -121 15 -207 -17 -226 -18 -260 -6 -96 31 -125 184 -46 240 37 26 115 30 138 6 15 -14 13 -15 -16 -4 -28 11 -35 10 -59 -8 -21 -16 -29 -31 -31 -61 -3 -36 1 -44 29 -64 23 -16 46 -22 83 -22 136 1 154 9 112 48 -14 13 -26 32 -27 42 0 10 -1 44 -2 75 -2 52 -5 58 -36 80 -37 25 -98 95 -89 103 2 3 20 -7 39 -20 35 -26 69 -30 77 -7 2 6 -5 15 -16 20 -24 8 -98 102 -82 102 7 0 23 -9 37 -20 48 -37 67 -23 64 48 -2 56 -10 66 -82 103 -96 48 -131 117 -95 188 14 27 66 56 116 65 33 5 115 -3 162 -16z"/>
 <path d="M4111 2604 c-12 -15 -21 -37 -21 -49 0 -35 -11 -36 -50 -5 -20 16 -40 27 -44 23 -3 -3 -6 -67 -6 -142 0 -119 3 -140 20 -169 11 -19 24 -32 28 -30 4 2 44 42 89 90 89 95 111 139 99 204 -7 36 -62 104 -84 104 -6 0 -20 -12 -31 -26z"/>
 </g>
<g id="layer102" fill="#bababa" stroke="none">
 <path d="M5180 5841 c-99 -21 -209 -111 -258 -211 l-27 -55 0 -430 0 -430 40 0 40 0 5 425 c5 414 6 426 27 466 71 132 251 191 382 125 54 -28 126 -111 140 -163 8 -29 13 -172 14 -448 l2 -405 36 -3 c22 -2 40 2 48 12 9 11 11 113 9 423 l-3 408 -32 68 c-39 82 -116 160 -190 194 -57 26 -170 38 -233 24z"/>
 <path d="M6121 5839 c-76 -23 -176 -115 -212 -193 -31 -69 -22 -102 31 -108 19 -3 25 5 40 46 21 62 81 133 134 157 51 23 153 25 203 4 101 -42 153 -123 153 -235 -1 -139 -62 -205 -282 -304 -219 -98 -281 -289 -140 -433 100 -103 251 -101 355 5 48 49 54 92 15 106 -25 9 -31 5 -70 -36 -49 -52 -102 -72 -158 -59 -84 19 -120 64 -120 149 0 86 38 136 137 182 147 68 180 87 237 141 89 83 119 152 114 262 -4 99 -29 156 -97 225 -66 69 -127 95 -226 99 -44 1 -95 -2 -114 -8z"/>
 <path d="M1365 5828 c-3 -7 -4 -260 -3 -563 l3 -550 180 0 c178 0 181 0 235 28 76 40 145 110 183 187 29 59 32 73 32 155 -1 71 -5 100 -23 139 -49 108 -153 197 -259 222 -32 8 -104 14 -160 14 l-103 0 -2 188 -3 187 -38 3 c-24 2 -39 -1 -42 -10z m376 -485 c25 -11 63 -37 84 -58 111 -112 107 -310 -10 -413 -64 -56 -120 -72 -252 -72 l-113 0 0 286 0 287 123 -5 c93 -4 133 -10 168 -25z"/>
 <path d="M2255 5828 c-3 -7 -4 -260 -3 -563 l3 -550 285 0 285 0 0 40 0 40 -242 3 -243 2 0 215 0 215 243 2 242 3 0 40 0 40 -242 3 -243 2 0 215 0 215 243 2 242 3 0 40 0 40 -283 3 c-221 2 -284 0 -287 -10z"/>
 <path d="M3367 5833 c-4 -3 -7 -237 -7 -519 l0 -513 -137 -3 -138 -3 0 -40 0 -40 315 0 315 0 0 40 0 40 -131 3 -131 3 -7 63 c-3 35 -6 265 -6 510 1 246 -2 451 -5 456 -7 11 -58 14 -68 3z"/>
 <path d="M3985 5828 c-3 -7 -4 -260 -3 -563 l3 -550 175 0 c168 0 177 1 231 26 67 32 150 112 187 182 24 47 27 62 27 157 0 96 -3 110 -29 161 -34 69 -103 138 -173 177 l-53 28 121 187 c66 103 118 191 114 197 -3 5 -24 10 -45 10 -45 0 -44 1 -190 -230 l-95 -150 -92 0 -93 0 -2 188 -3 187 -38 3 c-24 2 -39 -1 -42 -10z m379 -489 c100 -51 156 -144 156 -262 0 -104 -59 -200 -154 -250 -34 -18 -62 -22 -168 -25 l-128 -4 0 279 c0 154 3 283 6 286 4 3 60 4 126 1 94 -4 129 -9 162 -25z"/>
 <path d="M2905 4491 c-72 -43 -115 -123 -167 -308 l-32 -114 -21 28 c-11 15 -53 67 -93 115 -144 172 -246 238 -380 246 -73 4 -80 3 -110 -23 -27 -22 -32 -34 -32 -69 0 -25 10 -63 25 -93 27 -54 104 -133 129 -133 31 0 26 23 -12 58 -44 41 -82 109 -82 146 0 64 79 75 181 24 74 -37 187 -144 297 -283 66 -83 70 -90 51 -95 -12 -3 -27 -14 -33 -23 -16 -27 36 -71 73 -62 14 4 31 8 36 9 6 0 37 -28 69 -64 75 -84 155 -150 182 -150 32 0 49 26 38 57 -12 34 -32 40 -42 14 -7 -19 -10 -20 -27 -7 -11 7 -49 51 -84 96 l-64 83 104 -5 c125 -7 195 -28 252 -78 78 -69 86 -154 21 -209 -53 -43 -131 -61 -263 -61 -142 0 -239 23 -379 91 -152 74 -222 152 -222 249 0 30 4 39 22 43 62 17 175 -40 243 -121 33 -40 55 -30 36 16 -17 42 -77 96 -141 128 -76 39 -183 46 -222 14 -34 -27 -37 -66 -8 -143 36 -97 154 -204 292 -265 190 -83 516 -90 666 -13 52 26 109 92 117 134 17 91 -63 200 -179 245 -85 32 -229 55 -303 48 -46 -4 -63 -2 -63 7 0 24 77 263 98 303 46 91 108 127 145 86 26 -29 47 -86 36 -103 -28 -45 21 -155 113 -251 78 -80 145 -121 203 -122 103 -2 116 101 23 179 -43 36 -162 94 -211 102 -29 4 -39 11 -44 31 -10 40 8 77 41 80 60 7 131 -43 315 -223 220 -215 298 -285 322 -285 10 0 25 10 33 22 14 20 14 25 -4 52 -37 58 -50 95 -75 221 -14 70 -25 131 -25 136 0 5 21 1 48 -9 38 -14 54 -28 87 -77 83 -125 222 -235 296 -235 64 0 98 65 65 128 -29 56 -173 144 -259 158 -42 7 -57 37 -41 83 23 66 134 20 264 -109 92 -91 186 -219 201 -275 21 -76 85 -117 113 -73 11 17 -4 55 -40 105 -15 21 -15 23 0 29 8 3 35 -3 59 -15 53 -26 59 -26 81 -2 21 23 21 22 -53 116 -93 117 -125 203 -86 235 37 31 169 -42 263 -143 23 -26 42 -52 42 -58 0 -6 12 -39 27 -73 51 -115 79 -139 118 -95 16 16 17 25 8 47 -6 15 -34 85 -63 155 -28 71 -50 130 -48 133 3 2 36 -18 74 -45 212 -149 282 -268 202 -343 -28 -26 -30 -31 -16 -44 13 -14 19 -14 49 -1 45 18 60 38 66 86 11 83 -77 205 -240 336 -45 36 -101 74 -126 86 -42 20 -47 20 -78 5 -41 -20 -47 -34 -34 -80 l9 -36 -45 39 c-62 55 -137 91 -191 91 -35 0 -49 -6 -73 -29 -26 -26 -29 -36 -29 -93 0 -52 6 -77 34 -135 33 -68 33 -72 17 -87 -10 -9 -20 -16 -23 -16 -3 0 -33 36 -67 80 -181 234 -352 335 -457 271 -17 -10 -37 -33 -44 -50 -9 -23 -17 -30 -29 -25 -9 3 -36 13 -61 21 -25 8 -61 23 -81 34 -95 50 -175 29 -220 -57 l-26 -51 -59 49 c-86 71 -137 93 -211 93 -59 0 -63 2 -74 27 -6 15 -31 46 -55 68 -50 46 -89 52 -139 21z m744 -228 c12 -11 28 -48 40 -93 20 -77 43 -211 37 -217 -2 -2 -49 44 -105 102 -86 90 -101 110 -101 138 0 37 6 47 40 70 31 22 62 22 89 0z m-386 -124 c91 -47 169 -131 133 -145 -29 -11 -139 70 -186 137 -18 25 -19 29 -5 29 9 0 35 -10 58 -21z m800 0 c59 -30 109 -72 130 -108 16 -27 16 -32 4 -37 -29 -11 -140 69 -187 137 -18 25 -19 29 -5 29 9 0 35 -10 58 -21z"/>
 <path d="M5155 4339 c-29 -26 -35 -38 -35 -72 0 -59 34 -121 112 -203 89 -94 159 -141 230 -156 50 -11 59 -10 83 8 16 10 39 26 53 34 51 32 50 41 -16 142 -120 183 -130 264 -22 188 29 -21 124 -119 162 -169 25 -33 48 -35 48 -4 0 17 -81 122 -132 170 -52 49 -108 83 -139 83 -32 0 -89 -44 -89 -69 0 -33 -13 -30 -64 13 -92 78 -133 86 -191 35z m126 -48 c56 -36 88 -71 183 -199 78 -106 86 -122 62 -122 -100 0 -326 217 -326 313 0 46 19 48 81 8z"/>
 <path d="M3879 3535 c-349 -155 -588 -342 -651 -508 -17 -45 -19 -80 -18 -416 1 -201 1 -383 0 -405 0 -31 -7 -45 -35 -71 -31 -30 -38 -32 -71 -25 -48 11 -65 29 -66 70 -1 36 29 70 62 70 23 0 50 -26 50 -47 0 -13 -5 -12 -25 7 l-25 24 -23 -22 c-20 -21 -21 -24 -7 -50 21 -37 54 -40 85 -6 31 34 32 74 3 101 -34 30 -56 35 -86 19 -89 -46 -89 -152 1 -191 36 -16 13 -20 -27 -5 -35 13 -58 52 -62 106 -9 106 78 166 164 114 18 -11 37 -18 41 -15 5 2 7 26 4 52 -3 27 -4 55 -3 63 1 8 3 115 4 236 1 207 0 223 -18 243 -23 25 -54 24 -70 -1 -15 -24 4 -53 33 -52 20 1 21 -4 21 -107 0 -136 -22 -215 -80 -279 l-40 -45 36 78 c43 94 54 183 31 239 -19 44 -59 60 -85 34 -23 -23 -4 -52 32 -49 25 2 26 0 26 -56 0 -66 -24 -142 -69 -222 -40 -71 -71 -163 -71 -208 1 -49 31 -111 71 -145 30 -25 39 -28 91 -24 39 3 68 11 88 26 l29 22 3 -122 3 -123 150 -5 150 -5 -70 -32 c-86 -39 -107 -43 -121 -24 -16 21 -46 6 -42 -21 5 -36 84 -31 169 10 72 34 79 37 79 24 0 -5 -39 -27 -88 -50 -72 -35 -98 -42 -147 -42 -81 0 -134 16 -144 43 -13 34 -2 51 19 32 15 -14 18 -13 35 5 16 18 17 21 1 45 -25 38 -63 43 -93 13 -31 -32 -25 -73 18 -123 58 -66 197 -72 310 -13 35 18 68 35 73 37 4 2 5 -10 1 -27 -8 -38 12 -53 34 -24 22 28 114 72 151 72 27 0 30 -2 20 -19 -29 -55 7 -122 74 -140 22 -6 42 -8 46 -6 4 3 7 -3 6 -12 -1 -13 10 -21 37 -27 26 -7 39 -16 43 -32 3 -13 12 -28 19 -34 11 -9 17 -3 30 24 10 20 25 36 34 36 23 0 63 29 55 41 -3 6 0 10 7 8 37 -4 61 3 90 29 24 22 31 36 31 65 0 21 -6 44 -12 52 -11 13 -7 15 21 15 44 0 134 -42 149 -69 11 -22 35 -28 45 -11 3 5 0 18 -7 29 -21 34 -3 33 73 -6 69 -35 80 -38 159 -38 72 0 91 4 123 24 65 40 90 124 45 155 -31 22 -51 20 -76 -7 -26 -28 -28 -50 -6 -68 14 -11 18 -11 29 4 18 25 27 21 23 -10 -5 -41 -55 -63 -145 -63 -64 0 -80 4 -152 41 -45 23 -81 46 -81 50 0 13 8 11 49 -11 94 -50 167 -64 191 -35 10 12 10 18 0 30 -16 19 -39 19 -46 1 -5 -12 -14 -11 -60 4 -30 11 -68 27 -85 37 l-30 18 148 5 148 5 3 118 c1 64 6 117 9 117 4 0 15 -8 25 -17 11 -10 41 -18 77 -21 53 -4 61 -2 93 27 92 80 92 163 3 345 -60 123 -78 182 -73 241 3 34 6 40 27 40 32 0 49 28 32 49 -19 23 -44 20 -72 -10 -21 -22 -24 -34 -22 -92 2 -68 29 -163 57 -204 30 -43 16 -39 -24 7 -52 61 -71 125 -77 267 -5 111 -5 117 14 112 11 -3 26 3 37 15 18 20 18 22 1 41 -23 25 -40 25 -65 0 -19 -19 -20 -31 -18 -243 l3 -222 23 2 c14 2 22 -3 22 -12 0 -9 -8 -14 -22 -12 -21 2 -23 -3 -26 -47 -4 -62 8 -75 44 -47 37 29 85 27 123 -5 30 -25 54 -79 43 -98 -3 -5 -6 -22 -8 -38 -1 -16 -14 -43 -30 -59 -23 -24 -35 -29 -73 -27 -43 1 -44 2 -9 5 48 5 98 59 98 106 0 90 -115 136 -164 65 -22 -31 -20 -52 10 -87 29 -35 54 -39 77 -13 23 25 21 59 -3 72 -24 13 -38 6 -49 -23 -8 -20 -8 -20 -13 1 -7 26 15 52 43 52 11 0 31 -11 45 -26 60 -60 -28 -146 -107 -104 -47 26 -49 42 -49 483 l0 413 -26 53 c-49 98 -197 230 -377 335 -102 60 -320 166 -340 166 -7 0 -46 -16 -88 -35z m229 -78 c221 -111 361 -205 456 -307 103 -112 96 -58 96 -700 l0 -560 -700 0 -701 0 3 553 3 552 24 49 c37 75 143 180 261 258 100 66 390 218 418 218 7 0 70 -29 140 -63z m-940 -1055 c2 -7 -3 -12 -12 -12 -9 0 -16 7 -16 16 0 17 22 14 28 -4z m442 -577 c-32 -18 -40 -18 -40 0 0 10 10 15 33 15 l32 -1 -25 -14z m330 8 c-1 -25 -16 -30 -39 -12 l-23 19 31 0 c17 0 31 -3 31 -7z m87 -9 c-27 -15 -47 -12 -47 7 0 5 17 9 38 9 l37 -1 -28 -15z m323 1 c0 -12 -5 -13 -17 -7 -10 5 -25 12 -33 15 -8 3 0 6 18 6 22 1 32 -4 32 -14z m-492 -20 c49 -20 70 -48 51 -71 -10 -13 -16 -10 -42 21 -24 29 -36 36 -61 34 -17 -1 -39 2 -49 6 -25 11 -92 -2 -139 -26 -22 -11 -43 -18 -46 -15 -9 10 29 34 88 55 64 24 132 22 198 -4z m437 -9 c30 -14 55 -30 55 -35 0 -11 -23 -5 -55 15 -26 16 -110 28 -127 18 -7 -4 -26 -7 -43 -5 -44 3 -85 -31 -85 -71 0 -61 58 -89 95 -47 16 17 17 25 8 50 -12 32 0 40 17 10 27 -52 -6 -101 -69 -101 -48 0 -93 31 -73 51 17 18 15 46 -3 57 -14 7 -13 12 5 35 47 59 173 70 275 23z m-509 -68 c-20 -29 -20 -34 4 -58 27 -27 56 -25 84 5 21 23 25 24 37 9 33 -40 -79 -73 -129 -38 -27 18 -30 69 -5 96 22 25 29 15 9 -14z m52 4 c6 -18 -15 -14 -22 4 -4 10 -1 14 6 12 6 -2 14 -10 16 -16z"/>
 <path d="M3860 3366 c-262 -120 -430 -249 -496 -378 l-24 -48 2 -477 3 -478 615 0 615 0 3 478 2 479 -32 59 c-58 111 -220 235 -453 349 -67 33 -127 60 -131 59 -5 0 -52 -20 -104 -43z m260 -94 c192 -99 335 -214 379 -304 20 -43 21 -56 21 -486 l0 -442 -560 0 -561 0 3 454 3 454 40 58 c57 83 189 179 368 269 l148 74 37 -17 c20 -9 75 -36 122 -60z"/>
 <path d="M3810 3121 c-86 -18 -140 -73 -140 -142 0 -48 55 -111 130 -149 55 -28 58 -32 62 -70 5 -59 -5 -69 -41 -42 -32 24 -56 28 -66 12 -3 -5 15 -37 40 -70 25 -33 45 -60 43 -60 -2 0 -19 11 -38 25 -30 22 -36 23 -48 11 -13 -12 -12 -18 6 -44 12 -16 40 -46 64 -67 40 -37 42 -41 45 -104 2 -45 8 -73 21 -91 l20 -26 -27 -4 c-56 -8 -119 -4 -145 9 -21 12 -26 21 -26 53 0 49 31 68 80 48 24 -10 34 -10 43 -1 16 16 -20 50 -64 60 -107 23 -198 -73 -169 -179 14 -52 61 -106 106 -120 34 -12 53 -11 260 6 74 6 86 4 122 -16 l41 -23 76 74 c43 41 86 92 96 114 24 53 24 138 -1 192 -28 62 -106 141 -172 174 -62 31 -64 32 -89 18 -13 -7 -18 -3 -23 17 -4 14 -18 36 -31 50 l-23 23 36 6 c20 3 53 10 72 15 31 9 38 7 67 -22 30 -29 35 -31 49 -16 14 14 10 23 -46 102 -47 66 -66 86 -78 81 -135 -52 -295 -43 -317 19 -24 68 114 108 228 64 15 -6 27 -14 27 -19 0 -5 12 -14 27 -20 20 -8 30 -6 42 5 14 14 12 19 -18 50 -46 47 -159 74 -241 57z m365 -535 c13 -13 27 -40 31 -61 12 -64 -10 -110 -95 -196 l-78 -80 -11 26 c-7 16 -12 77 -12 152 l0 125 36 -27 c35 -27 37 -27 50 -10 8 10 14 27 14 38 0 24 18 57 31 57 5 0 21 -11 34 -24z"/>
 </g>

</svg>