<?xml version="1.0" encoding="UTF-8" standalone="no"?>
<!-- Created with Inkscape (http://www.inkscape.org/) -->

<svg
   xmlns:dc="http://purl.org/dc/elements/1.1/"
   xmlns:cc="http://creativecommons.org/ns#"
   xmlns:rdf="http://www.w3.org/1999/02/22-rdf-syntax-ns#"
   xmlns:svg="http://www.w3.org/2000/svg"
   xmlns="http://www.w3.org/2000/svg"
   xmlns:sodipodi="http://sodipodi.sourceforge.net/DTD/sodipodi-0.dtd"
   xmlns:inkscape="http://www.inkscape.org/namespaces/inkscape"
   version="1.1"
   id="svg2"
   width="1500"
   height="1500"
   viewBox="0 0 1500 1500"
   sodipodi:docname="p_white.svg"
   inkscape:version="0.92.2 2405546, 2018-03-11">
  <metadata
     id="metadata8">
    <rdf:RDF>
      <cc:Work
         rdf:about="">
        <dc:format>image/svg+xml</dc:format>
        <dc:type
           rdf:resource="http://purl.org/dc/dcmitype/StillImage" />
        <dc:title></dc:title>
      </cc:Work>
    </rdf:RDF>
  </metadata>
  <defs
     id="defs6" />
  <sodipodi:namedview
     pagecolor="#ffffff"
     bordercolor="#666666"
     borderopacity="1"
     objecttolerance="10"
     gridtolerance="10"
     guidetolerance="10"
     inkscape:pageopacity="0"
     inkscape:pageshadow="2"
     inkscape:window-width="1920"
     inkscape:window-height="1040"
     id="namedview4"
     showgrid="false"
     inkscape:zoom="0.44500587"
     inkscape:cx="695.52979"
     inkscape:cy="564.22279"
     inkscape:window-x="0"
     inkscape:window-y="20"
     inkscape:window-maximized="0"
     inkscape:current-layer="svg2" />
  <path
     style="fill:#000000"
     d="m 410.33372,1179.1232 c -0.3371,0 -1.15291,-0.54 -1.81291,-1.2 -0.66,-0.66 -1.2,-2.2954 -1.2,-3.6343 0,-1.3389 1.94653,-6.5364 4.32562,-11.55 2.37909,-5.0136 6.65469,-12.8648 9.50133,-17.4471 2.84665,-4.5822 8.3004,-12.4704 12.11944,-17.5292 3.81904,-5.0589 10.81862,-13.6847 15.55462,-19.1687 4.73601,-5.4839 10.55413,-13.3457 12.92917,-17.4707 2.37503,-4.125 6.78613,-12.45 9.80243,-18.5 3.0163,-6.05 6.25077,-13.3375 7.1877,-16.1944 0.93693,-2.857 1.72929,-7.0623 1.7608,-9.3451 0.0358,-2.5959 -0.56356,-4.7706 -1.60016,-5.8056 -1.27291,-1.271 -3.56257,-1.6549 -9.86919,-1.6549 -7.66408,0 -8.8428,0.3001 -17.67331,4.5 -5.20385,2.475 -12.02854,6.3837 -15.16598,8.6861 -3.13744,2.3023 -8.29117,6.8023 -11.45274,10 -3.16156,3.1976 -7.47437,8.4712 -9.58401,11.7189 -2.17589,3.3498 -3.83572,7.142 -3.83572,8.7636 0,1.5722 0.54547,3.732 1.21215,4.7995 0.66667,1.0675 0.87009,2.283 0.45203,2.7011 -0.41806,0.418 -1.52602,0.2821 -2.46214,-0.3021 -0.93612,-0.5842 -2.26882,-2.7544 -2.96155,-4.8225 -0.94817,-2.8307 -0.99239,-4.7841 -0.1789,-7.9024 0.59434,-2.2782 2.68358,-6.5881 4.64274,-9.5775 1.95917,-2.9894 5.59807,-7.6118 8.08645,-10.2721 2.48838,-2.6603 7.49888,-7.042 11.13446,-9.7372 3.63557,-2.6951 9.85339,-6.5479 13.81738,-8.5617 3.96398,-2.0138 9.58102,-4.2934 12.48231,-5.0657 2.90129,-0.7724 7.79602,-1.4096 10.87719,-1.4161 4.17005,-0.01 6.45689,0.5641 8.94593,2.2415 1.8391,1.2394 4.24829,3.8021 5.35377,5.6949 1.46869,2.5148 2.0036,5.2067 1.98638,9.9966 -0.019,5.2826 -0.75376,8.3023 -3.78494,15.5551 -2.06876,4.95 -4.02008,10.1005 -4.33628,11.4456 l -0.5749,2.4455 2.5527,-1.9455 c 1.40399,-1.0701 5.94269,-4.5353 10.08601,-7.7006 4.14332,-3.1652 11.28108,-7.9948 15.86168,-10.7324 4.5806,-2.7376 12.14868,-6.3791 16.81795,-8.0922 5.49023,-2.0143 11.18404,-3.3045 16.1162,-3.652 4.19465,-0.2955 9.19246,-0.2435 11.10626,0.1155 1.91379,0.359 5.54077,2.018 8.05995,3.6867 3.14309,2.0819 5.38469,4.648 7.14375,8.178 1.5002,3.0105 2.56342,6.8477 2.56342,9.2514 0,2.4187 -1.06886,6.2522 -2.59988,9.3246 -1.42993,2.8695 -4.62451,7.2419 -7.09906,9.7164 -2.47456,2.4746 -6.50368,5.8784 -8.95362,7.564 -2.44993,1.6856 -9.49285,5.4602 -15.65093,8.3882 -6.15808,2.9279 -14.67832,6.5005 -18.93386,7.9391 -4.25554,1.4386 -13.4424,4.1792 -20.41524,6.0902 -6.97283,1.9111 -12.94102,3.7531 -13.26265,4.0934 -0.32162,0.3402 0.0902,1.0308 0.91524,1.5344 0.825,0.5037 9.6,5.3119 19.5,10.6849 9.9,5.373 24.03962,13.5706 31.42137,18.217 7.38175,4.6463 13.89084,9.2137 14.46463,10.1498 0.57379,0.9362 0.72983,2.0155 0.34674,2.3986 -0.38308,0.3831 -2.39216,-0.437 -4.46463,-1.8223 -2.07246,-1.3854 -6.24311,-3.8552 -9.26811,-5.4886 -3.025,-1.6333 -8.425,-4.6632 -12,-6.7331 -3.575,-2.0699 -13.025,-7.0272 -21,-11.0164 -7.975,-3.9891 -19,-9.1911 -24.5,-11.5599 -5.5,-2.3687 -10.58422,-4.7565 -11.29826,-5.3061 -0.71404,-0.5495 -1.16404,-1.8604 -1,-2.9129 0.24807,-1.5917 3.24307,-2.6678 17.79826,-6.3949 9.625,-2.4646 21.55,-5.8607 26.5,-7.5468 4.95,-1.6861 12.96094,-4.7696 17.80209,-6.8522 4.84115,-2.0825 11.33003,-5.2896 14.41973,-7.1269 3.0897,-1.8373 8.53602,-6.0405 12.10294,-9.3405 3.56691,-3.3 7.30565,-7.8 8.3083,-10 1.00266,-2.2 1.8329,-5.8341 1.84498,-8.0757 0.016,-2.9713 -0.58769,-4.631 -2.22804,-6.125 -1.2375,-1.1272 -3.26499,-2.5728 -4.50553,-3.2125 -1.24054,-0.6397 -5.06554,-1.4229 -8.5,-1.7404 -4.28229,-0.3959 -8.44405,-0.035 -13.24447,1.1484 -3.85,0.9491 -10.77503,3.4762 -15.38896,5.6157 -4.61392,2.1395 -12.03892,6.3196 -16.5,9.2891 -4.46107,2.9695 -13.06104,9.6482 -19.11104,14.8415 -6.05,5.1934 -13.28157,11.8761 -16.07016,14.8507 -2.78859,2.9745 -7.70252,9.9082 -10.91984,15.4082 -3.21732,5.5 -9.06487,14.95 -12.99457,21 -3.9297,6.05 -11.33246,16.85 -16.45058,24 -5.11813,7.15 -10.46069,14.2375 -11.87236,15.75 -1.41167,1.5125 -2.84248,2.75 -3.17958,2.75 z m 168.48709,-19.627 c -2.75,0.2912 -5.675,0.2678 -6.5,-0.052 -0.825,-0.32 -2.2875,-1.2678 -3.25,-2.1063 -0.9625,-0.8385 -1.75,-2.563 -1.75,-3.8322 0,-1.6937 1.52998,-3.3384 5.75,-6.181 3.1625,-2.1303 9.05053,-5.821 13.08452,-8.2015 4.03399,-2.3805 7.91666,-5.2668 8.62815,-6.414 0.7115,-1.1472 1.56945,-3.5845 1.90655,-5.4162 0.33711,-1.8317 0.27944,-3.178 -0.12815,-2.9917 -0.40759,0.1862 -4.04657,2.0497 -8.08664,4.141 -4.04006,2.0914 -11.25783,5.081 -16.0395,6.6435 -4.78166,1.5626 -11.17925,3.1516 -14.21687,3.5311 -4.02823,0.5033 -6.53066,0.269 -9.24649,-0.8657 -2.67886,-1.1193 -4.16173,-2.6045 -5.28535,-5.2937 -1.25742,-3.0095 -1.34455,-4.4631 -0.44707,-7.4586 0.7049,-2.3527 2.96799,-5.3869 6.1556,-8.2528 2.77247,-2.4927 7.49641,-5.7336 10.49763,-7.2019 3.00122,-1.4684 7.42261,-2.8913 9.82531,-3.1622 3.52941,-0.3978 4.77518,-0.086 6.48543,1.6245 1.16428,1.1643 2.11688,2.9472 2.11688,3.9619 0,1.0148 -0.7875,2.5355 -1.75,3.3794 -0.9625,0.8439 -3.325,2.3463 -5.25,3.3386 -2.0074,1.0347 -6.13723,1.909 -9.68404,2.0501 -3.40122,0.1352 -7.0735,0.722 -8.16062,1.3038 -1.08712,0.5818 -2.96057,2.6499 -4.16321,4.5958 -1.20264,1.946 -1.93199,4.2016 -1.62076,5.0127 0.37812,0.9853 1.98636,1.4697 4.84725,1.4598 2.35476,-0.01 7.20638,-0.6941 10.78138,-1.5245 3.575,-0.8304 10.1,-2.6871 14.5,-4.1261 4.4,-1.4391 10.9987,-4.1141 14.66377,-5.9447 5.45501,-2.7245 6.78221,-3.8675 7.31673,-6.3011 0.35914,-1.6352 1.96691,-4.7868 3.57283,-7.0037 1.60593,-2.2169 4.70797,-4.943 6.89343,-6.0579 2.18546,-1.115 5.06139,-2.0272 6.39096,-2.0272 1.32956,0 2.96123,0.6553 3.62593,1.4562 0.66469,0.8009 0.93963,1.8913 0.61097,2.4231 -0.32865,0.5317 -2.00339,1.2756 -3.72163,1.653 -1.71824,0.3774 -4.97646,2.5495 -7.24049,4.8269 -2.774,2.7904 -4.68648,5.9631 -5.86446,9.7287 -0.96142,3.0733 -1.74804,6.6171 -1.74804,7.875 0,2.0434 0.34368,2.2184 3.22523,1.6421 1.77388,-0.3548 9.08638,-3.3765 16.25,-6.7148 10.30025,-4.8001 14.18132,-7.2015 18.55377,-11.48 3.33503,-3.2634 6.41031,-5.4102 7.75,-5.4102 1.58847,0 2.221,0.5971 2.221,2.0967 0,1.1795 -2.68773,5.0071 -6.14423,8.75 -3.37933,3.6593 -7.42933,8.6539 -9,11.0991 -1.57067,2.4452 -2.85577,5.0327 -2.85577,5.75 0,0.7173 0.87677,1.3042 1.94838,1.3042 1.07161,0 5.67918,-1.1786 10.23905,-2.619 4.55988,-1.4405 13.24561,-4.9696 19.30163,-7.8425 6.05602,-2.8729 13.25114,-7.093 15.98916,-9.3781 2.73802,-2.2851 6.89561,-5.056 9.2391,-6.1575 2.34349,-1.1016 6.10886,-2.0029 8.36749,-2.0029 2.25863,0 5.42096,0.7764 7.0274,1.7254 l 2.9208,1.7253 22.93788,-22.9216 c 22.70213,-22.686 22.95891,-22.9026 24.9835,-21.0704 1.12508,1.0182 2.04561,2.2932 2.04561,2.8332 0,0.5401 -3.0375,4.3468 -6.75,8.4594 -3.7125,4.1125 -9.58641,10.9134 -13.05313,15.113 -3.46672,4.1996 -9.35828,11.9107 -13.09236,17.1357 -3.73407,5.225 -9.11224,13.3763 -11.95148,18.114 -2.83924,4.7377 -5.66608,10.0593 -6.28188,11.8258 -0.67603,1.9392 -0.75757,3.5738 -0.20579,4.1256 0.55177,0.5517 3.86962,-0.5838 8.37423,-2.866 4.10323,-2.0789 13.39923,-7.4851 20.6578,-12.0138 7.25856,-4.5287 15.80856,-10.4669 19,-13.196 3.19143,-2.7291 8.4429,-6.3727 11.66993,-8.0969 4.11632,-2.1995 7.35843,-3.1735 10.86383,-3.2639 4.30038,-0.1109 5.27352,0.2369 6.9847,2.4963 1.58049,2.0868 1.76568,3.0409 0.90312,4.6526 -0.59679,1.1151 -3.22608,3.0639 -5.84287,4.3307 -3.15388,1.5268 -6.90748,2.3809 -11.13453,2.5335 -5.08608,0.1838 -6.87816,0.6987 -8.85416,2.5442 -1.36259,1.2727 -3.04794,3.4389 -3.74522,4.8139 -0.69728,1.375 -1.06702,3.0625 -0.82165,3.75 0.25211,0.7064 2.12099,1.25 4.29742,1.25 2.11821,0 7.07014,-0.6771 11.00429,-1.5047 3.93415,-0.8276 10.60107,-2.6536 14.81538,-4.058 4.2143,-1.4043 10.81237,-4.1093 14.66237,-6.0112 6.07731,-3.0022 7.65058,-4.3846 11.93566,-10.4873 3.74009,-5.3265 5.43324,-6.9577 6.98979,-6.734 1.12976,0.1624 2.20351,1.0791 2.3861,2.0371 0.18259,0.958 -2.1837,5.2302 -5.25841,9.4938 -3.07471,4.2635 -5.12906,7.9057 -4.56522,8.0936 0.56383,0.188 3.83471,-1.4295 7.26862,-3.5943 3.4339,-2.1649 7.86303,-4.5192 9.84249,-5.2319 1.97947,-0.7126 4.78379,-0.9983 6.23181,-0.6349 1.48867,0.3736 3.29253,1.9366 4.15097,3.5966 0.83501,1.6147 1.51819,4.3082 1.51819,5.9855 0,1.6774 0.3375,3.0464 0.75,3.0423 0.4125,0 4.30375,-2.0374 8.64722,-4.5184 4.34347,-2.481 9.74347,-5.4037 12,-6.4949 2.25653,-1.0912 6.49959,-3.7532 9.42902,-5.9156 2.92943,-2.1624 8.07931,-4.8613 11.44417,-5.9976 3.36486,-1.1364 7.99487,-2.0661 10.2889,-2.0661 2.70546,0 5.09675,0.7282 6.80583,2.0726 1.44917,1.1399 2.63486,2.4407 2.63486,2.8907 0,0.4499 -3.2625,1.0022 -7.25,1.2273 -5.33437,0.301 -8.83535,1.1713 -13.25,3.2935 -3.71454,1.7857 -8.76159,5.5888 -13.25,9.9842 -4.73068,4.6326 -7.25,7.8783 -7.25,9.3405 0,1.4851 0.86496,2.5696 2.5651,3.216 1.4108,0.5363 4.41766,0.9752 6.6819,0.9752 2.26424,0 7.62159,-0.9457 11.90521,-2.1015 4.28363,-1.1559 14.2121,-5.2387 22.06328,-9.073 12.11596,-5.917 15.13049,-7.8678 19.9323,-12.8984 3.2033,-3.356 6.52084,-5.9271 7.64783,-5.9271 1.09472,0 2.26322,0.711 2.59667,1.5799 0.39949,1.0411 -1.53831,4.0389 -5.6816,8.7896 -3.45832,3.9652 -7.45577,8.7668 -8.88321,10.67 -1.42744,1.9033 -2.9029,4.473 -3.2788,5.7105 -0.57992,1.9091 -0.31048,2.25 1.7786,2.25 1.35413,0 5.54695,-0.9511 9.31738,-2.1135 3.77044,-1.1625 11.68092,-4.2889 17.57884,-6.9476 5.89793,-2.6588 13.12563,-6.6477 16.06157,-8.8644 2.93593,-2.2166 7.18533,-4.682 9.44312,-5.4786 2.25778,-0.7966 6.05508,-1.7186 8.43843,-2.049 2.73212,-0.3787 5.2539,-0.1196 6.82452,0.7013 1.37013,0.7161 2.62954,2.0207 2.7987,2.899 0.24231,1.2583 -0.81655,1.6922 -4.99114,2.0457 -2.91429,0.2467 -8.11006,1.7152 -11.54618,3.2633 -3.89405,1.7544 -7.84569,4.5485 -10.49016,7.4174 -3.44584,3.7383 -3.91333,4.6662 -2.4891,4.9405 0.96447,0.1857 3.90205,-0.3759 6.52795,-1.2481 2.6259,-0.8722 8.13236,-3.5565 12.23658,-5.9651 4.10422,-2.4086 9.55626,-6.2291 12.11566,-8.4901 2.55939,-2.2609 5.34159,-4.1108 6.18259,-4.1108 0.841,0 1.8227,0.9249 2.1815,2.0554 0.4945,1.5578 -0.4538,3.2381 -3.9166,6.9401 -2.5129,2.6866 -5.92618,7.0247 -7.58496,9.6404 -1.65879,2.6156 -3.01598,5.3732 -3.01598,6.128 0,0.9139 2.98812,-0.2032 8.94474,-3.3439 4.9196,-2.5939 12.84045,-7.8511 17.60165,-11.6828 4.7612,-3.8317 10.0736,-9.008 11.8053,-11.5031 1.7317,-2.495 6.0156,-8.1139 9.5199,-12.4864 3.5043,-4.3725 10.6986,-12.4582 15.9872,-17.9682 5.2887,-5.51 13.0783,-12.7886 17.3102,-16.1745 4.2319,-3.386 10.5274,-7.8322 13.99,-9.8806 3.4626,-2.0484 7.3081,-3.7244 8.5454,-3.7244 1.318,0 2.9537,1.0744 3.9494,2.5942 1.6113,2.459 1.6,2.7845 -0.2168,6.25 -1.0542,2.0107 -6.7047,8.3974 -12.5566,14.1927 -5.852,5.7953 -17.0315,15.2453 -24.8434,21 -7.8119,5.7547 -16.9785,12.4881 -20.3701,14.9631 -4.6069,3.3617 -7.7435,6.8772 -12.4003,13.8982 -3.4285,5.169 -7.1606,11.8758 -8.2937,14.9041 -1.133,3.0283 -1.911,6.2241 -1.729,7.1018 0.2548,1.2285 1.3585,1.5295 4.7937,1.3074 2.4544,-0.1587 15.0376,-3.8507 27.9626,-8.2045 12.925,-4.3538 27.55,-8.7038 32.5,-9.6667 5.829,-1.1339 13.9327,-1.7666 23,-1.7956 9.7977,-0.031 14.9897,0.3728 17.2972,1.3462 1.8134,0.7649 3.9754,2.7024 4.8043,4.3055 l 1.5073,2.9146 -3.8044,-0.8055 c -2.0924,-0.443 -11.4544,-0.7822 -20.8044,-0.7538 -14.9634,0.045 -18.2579,0.3686 -27.5,2.697 -5.775,1.4549 -18.375,5.1604 -28,8.2344 -9.625,3.074 -20.5466,6.116 -24.2703,6.76 -6.6989,1.1586 -6.7984,1.1428 -9.4415,-1.5003 -2.1951,-2.1951 -2.6582,-3.5403 -2.5977,-7.5461 0.04,-2.6812 1.0013,-6.9723 2.1353,-9.5358 1.1339,-2.5635 1.7785,-4.6609 1.4324,-4.6609 -0.3461,0 -1.5583,0.854 -2.6938,1.8978 -1.1354,1.0437 -5.5993,4.4187 -9.91975,7.5 -6.1751,4.4041 -8.65486,5.6022 -11.59495,5.6022 -2.45841,0 -4.35444,-0.679 -5.53333,-1.9817 -1.39957,-1.5465 -1.65971,-2.9573 -1.18456,-6.4239 l 0.60887,-4.4422 -6.63056,3.0065 c -3.64681,1.6535 -8.51715,3.0794 -10.82299,3.1687 -2.30584,0.089 -4.90485,-0.429 -5.7756,-1.1517 -0.87074,-0.7226 -1.86396,-2.5923 -2.20715,-4.1549 l -0.62398,-2.841 -10.1903,4.8403 c -5.60466,2.6621 -12.98859,5.7716 -16.40874,6.91 -3.42015,1.1385 -7.58265,2.0699 -9.25,2.0699 -1.69822,0 -3.91119,-0.8796 -5.03155,-2 -1.25214,-1.2521 -2,-3.3333 -2,-5.5657 0,-1.9612 0.42147,-4.3533 0.93661,-5.3159 0.64365,-1.2026 -2.29359,-0.1308 -9.39034,3.4266 -5.67982,2.8472 -13.89444,6.1393 -18.25471,7.3159 -4.43219,1.1959 -10.91808,2.1391 -14.70966,2.1391 -6.42651,0 -6.96661,-0.1847 -10.30674,-3.5248 -3.27785,-3.2779 -3.49174,-3.8694 -3.05245,-8.4412 l 0.47239,-4.9163 -5.59755,4.3054 c -3.07865,2.368 -7.17255,5.2648 -9.09755,6.4374 -1.925,1.1726 -4.50393,2.1337 -5.73095,2.1358 -1.58941,0 -2.42516,-0.7701 -2.90633,-2.6873 -0.37146,-1.48 -0.15504,-4.6364 0.48095,-7.0143 0.63598,-2.3779 1.15633,-4.7669 1.15633,-5.3091 0,-0.5421 -0.69293,-0.9856 -1.53984,-0.9856 -0.84691,0 -3.43441,0.9633 -5.75,2.1408 -2.31559,1.1774 -6.91016,3.9662 -10.21016,6.1973 -3.3,2.2312 -9.29198,6.6679 -13.31551,9.8593 -4.02353,3.1914 -7.70389,5.8026 -8.17857,5.8026 -0.47469,0 -1.57021,-0.7071 -2.43449,-1.5714 -0.86429,-0.8643 -1.57143,-2.1445 -1.57143,-2.845 0,-0.7004 1.74566,-3.9744 3.87925,-7.2755 l 3.87925,-6.0019 -6.62925,3.2438 c -3.64609,1.7842 -10.45425,4.461 -15.12925,5.9484 -5.24458,1.6688 -11.05389,2.7614 -15.16828,2.8531 -5.78322,0.1288 -7.00865,-0.1711 -9.23281,-2.2597 -1.41049,-1.3245 -2.81891,-3.2096 -3.12981,-4.1892 -0.48528,-1.5289 -2.00911,-0.8437 -10.76719,4.8416 -5.61105,3.6424 -14.36846,8.79 -19.4609,11.4392 -5.09244,2.6491 -10.5265,4.8166 -12.07569,4.8166 -1.63207,0 -3.69997,-0.9463 -4.91688,-2.25 -1.1551,-1.2375 -2.38432,-3.3958 -2.7316,-4.7963 -0.34879,-1.4066 0.0735,-4.6227 0.9435,-7.1851 0.8662,-2.5514 3.15345,-7.4316 5.08278,-10.8449 1.92933,-3.4133 3.28773,-6.4262 3.01866,-6.6953 -0.26906,-0.269 -3.09436,1.7677 -6.27843,4.5261 -3.18408,2.7584 -9.13053,7.3171 -13.21435,10.1304 -6.35416,4.3773 -8.10403,5.1151 -12.13205,5.1151 -3.89933,0 -4.98403,-0.4229 -6.32194,-2.4648 -0.88826,-1.3557 -1.61501,-3.8788 -1.61501,-5.607 0,-2.1223 -0.40573,-2.9747 -1.25,-2.6262 -0.6875,0.2838 -6.53075,2.7988 -12.98501,5.5888 -6.45425,2.7901 -13.75753,5.5821 -16.2295,6.2046 -2.47197,0.6224 -5.64163,0.8438 -7.04369,0.4919 -1.59314,-0.3999 -3.17758,-1.9575 -4.2247,-4.1534 -1.32082,-2.7698 -1.44663,-4.0873 -0.59432,-6.2237 0.59466,-1.4906 1.42828,-3.5461 1.8525,-4.5678 0.56133,-1.352 -3.28452,0.2025 -14.12699,5.7101 l -14.89829,7.5677 -3.5,7.2683 c -2.86646,5.9527 -4.31455,7.7558 -8,9.9616 -2.55614,1.5298 -6.65985,2.922 -9.5,3.2229 z m 0.25,-5.8255 c 1.5125,-0.3681 4.4375,-1.7732 6.5,-3.1226 2.0625,-1.3493 3.75,-3.1474 3.75,-3.9958 0,-1.2213 -0.88492,-0.9974 -4.25,1.0753 -2.3375,1.4398 -5.2625,3.1125 -6.5,3.7172 -1.2375,0.6047 -2.25,1.526 -2.25,2.0473 0,0.5297 1.2134,0.6526 2.75,0.2786 z m 96.79966,-20.5475 c 0.85231,0 2.98981,-0.7363 4.75,-1.6361 1.76019,-0.8999 6.80034,-4.4433 11.20034,-7.8742 4.4,-3.4309 8.82036,-7.1539 9.82303,-8.2733 1.7664,-1.972 1.76381,-2.0541 -0.0833,-2.6403 -1.04846,-0.3328 -3.86612,0.086 -6.26146,0.9316 -2.39535,0.8451 -6.76245,3.3541 -9.70469,5.5755 -2.94223,2.2214 -6.68243,5.8789 -8.31156,8.1279 -1.62913,2.2489 -2.96205,4.4715 -2.96205,4.9389 0,0.4675 0.69735,0.85 1.54966,0.85 z m -112.88345,-16.6236 c 1.55859,-0.3871 4.26552,-1.2983 6.01541,-2.025 1.74989,-0.7266 3.46395,-1.7779 3.80902,-2.3362 0.34506,-0.5584 0.39272,-1.0152 0.10589,-1.0152 -0.28683,0 -3.00483,0.9291 -6.04001,2.0647 -3.03518,1.1356 -5.78976,2.5037 -6.1213,3.0401 -0.37389,0.605 0.47331,0.7081 2.23099,0.2716 z m 204.09663,-1.3764 c 0.48449,0 2.95817,-0.7078 5.49707,-1.5729 2.53891,-0.8651 5.14917,-2.2151 5.80059,-3 0.65141,-0.7849 0.92117,-1.4271 0.59946,-1.4271 -0.32172,0 -3.06826,0.9291 -6.10344,2.0647 -3.03518,1.1356 -5.77862,2.4856 -6.09653,3 -0.31791,0.5144 -0.18163,0.9353 0.30285,0.9353 z m 279.77815,-28 c 0.3361,0 3.3894,-2.1323 6.7852,-4.7384 3.3957,-2.6062 10.3425,-8.497 15.4374,-13.0907 5.0948,-4.5938 9.7231,-9.2115 10.2851,-10.2616 0.6021,-1.1249 0.6373,-1.9093 0.086,-1.9093 -0.5149,0 -3.593,1.9972 -6.8402,4.4382 -3.2473,2.441 -10.0556,8.3462 -15.1296,13.1226 -5.0739,4.7764 -9.6775,9.5293 -10.2301,10.5618 -0.5526,1.0326 -0.7298,1.8774 -0.3936,1.8774 z m -386.82244,9 c -0.21187,0 -0.68522,-0.3 -1.05188,-0.6667 -0.36667,-0.3666 -0.66667,-1.6649 -0.66667,-2.885 0,-1.2764 1.08664,-2.9303 2.55914,-3.8951 1.40752,-0.9222 3.54502,-1.5365 4.75,-1.365 1.29838,0.1848 2.30148,1.1265 2.46241,2.3118 0.19379,1.4272 -0.86528,2.6444 -3.69812,4.25 -2.18331,1.2375 -4.14301,2.25 -4.35488,2.25 z m 283.36871,-3 c -0.52387,0 -1.26547,-0.9861 -1.64801,-2.1914 -0.52554,-1.6558 -0.0396,-2.7556 1.98838,-4.5 1.47614,-1.2697 3.7838,-2.3086 5.12813,-2.3086 1.34433,0 2.44424,0.1882 2.44424,0.4182 0,0.23 0.26201,1.101 0.58225,1.9355 0.39299,1.0242 -0.73821,2.3509 -3.48013,4.0818 -2.23431,1.4105 -4.49099,2.5645 -5.01486,2.5645 z M 764.32081,998.62636 c -348.425,0 -490.9625,-0.11391 -316.75,-0.25312 174.2125,-0.13922 459.2875,-0.13922 633.50019,0 174.2125,0.13921 31.675,0.25312 -316.75019,0.25312 z M 366.2406,952.51699 c -3.53088,0.26634 -8.89479,0.0577 -11.91979,-0.46359 -3.025,-0.5213 -8.2,-2.27216 -11.5,-3.89079 -3.3,-1.61863 -7.575,-4.28224 -9.5,-5.91913 l -3.5,-2.97616 2.15292,-2.19718 2.15292,-2.19719 3.84708,3.07685 c 2.11589,1.69227 6.54708,4.33608 9.84708,5.87514 5.17315,2.41266 7.24028,2.79829 15,2.79829 8.0949,0 9.48786,-0.28676 13.85108,-2.85139 3.61485,-2.12475 5.3545,-3.98945 6.82654,-7.31724 1.43694,-3.24846 1.79569,-5.5299 1.31599,-8.36917 -0.3627,-2.14683 -1.51211,-4.9873 -2.55425,-6.31216 -1.04213,-1.32486 -3.91621,-3.35902 -6.38684,-4.52035 -2.47063,-1.16133 -9.22383,-3.22956 -15.00711,-4.59607 -5.78329,-1.3665 -12.71327,-3.59847 -15.39997,-4.95992 -2.68671,-1.36146 -6.02986,-3.83607 -7.42924,-5.49913 -1.39938,-1.66307 -3.08551,-4.66355 -3.74695,-6.66775 -0.66144,-2.00419 -0.99103,-5.52119 -0.73242,-7.81557 0.2586,-2.29437 1.2872,-5.89331 2.28577,-7.99764 0.99857,-2.10432 3.61313,-5.12818 5.81013,-6.71968 2.19701,-1.59151 6.2526,-3.56421 9.01242,-4.38379 2.75982,-0.81958 7.31663,-1.49014 10.12625,-1.49014 2.80962,0 7.79045,0.69405 11.0685,1.54234 3.27806,0.84829 8.3226,2.96837 11.2101,4.71129 2.8875,1.74292 5.25,3.47401 5.25,3.84687 0,0.37286 -0.7875,1.62331 -1.75,2.77877 l -1.75,2.10085 -4.41636,-3.00072 c -2.42899,-1.6504 -6.67317,-3.67093 -9.4315,-4.49006 -2.75833,-0.81914 -7.74597,-1.47946 -11.08364,-1.46738 -3.71029,0.0134 -7.63897,0.73533 -10.10987,1.8577 -2.22275,1.00966 -5.22213,3.239 -6.66528,4.95409 -1.44316,1.71509 -2.91452,4.44146 -3.26971,6.05862 -0.35519,1.61715 -0.1477,4.79003 0.46107,7.05085 0.7904,2.93534 2.21266,4.9116 4.97456,6.91232 2.12724,1.54096 7.16914,3.73138 11.20422,4.8676 4.03508,1.13622 10.4143,2.8492 14.17604,3.80664 3.76174,0.95743 8.93674,3.14241 11.5,4.8555 2.94907,1.97095 5.48671,4.7532 6.91047,7.57661 1.2375,2.45404 2.24749,6.05404 2.24442,8 -0.003,1.94596 -0.48301,5.25746 -1.06654,7.35889 -0.58354,2.10143 -2.60979,5.53513 -4.50278,7.63045 -1.893,2.09532 -5.61165,4.74311 -8.26366,5.88398 -2.65202,1.14086 -7.71076,2.29221 -11.24165,2.55855 z m 900.6467,0.52243 c -2.2364,-0.0461 -6.5413,-0.6341 -9.5663,-1.30669 -3.025,-0.67258 -7.3641,-2.19435 -9.6426,-3.3817 -2.2784,-1.18735 -5.7623,-4.05113 -7.742,-6.36396 -1.9796,-2.31283 -4.5953,-6.71585 -5.8126,-9.78449 -2.1007,-5.29591 -2.2154,-7.05258 -2.258,-34.57935 l -0.045,-29 h 9 9 l 0.5,28 c 0.482,26.99233 0.5823,28.1324 2.7877,31.67905 1.3429,2.15965 4.0545,4.53432 6.5657,5.75 2.3529,1.13902 6.0656,2.07095 8.2504,2.07095 2.1848,0 5.97,-1.0125 8.4114,-2.25 2.6289,-1.33248 5.2639,-3.67726 6.4619,-5.75 1.8613,-3.22039 2.0628,-5.73684 2.5229,-31.5 l 0.5,-28 9.3404,-0.28872 9.3404,-0.28872 -0.3927,29.28872 c -0.3663,27.33035 -0.5401,29.66178 -2.5983,34.86807 -1.2132,3.06864 -3.7282,7.35797 -5.589,9.53185 -1.8608,2.17388 -5.5697,5.13671 -8.242,6.58407 -2.6723,1.44736 -7.5289,3.12053 -10.7925,3.71815 -3.2635,0.59762 -7.7635,1.04887 -10,1.00277 z m 99.5,-0.041 c -1.4114,-0.0686 -4.9122,-0.46743 -7.7793,-0.88626 -2.8672,-0.41884 -7.4153,-1.55345 -10.107,-2.52136 -2.6917,-0.96792 -7.3208,-3.38159 -10.287,-5.36373 -2.9661,-1.98214 -5.393,-4.16037 -5.393,-4.84052 0,-0.68014 1.9797,-3.71764 4.3994,-6.75 2.4197,-3.03235 4.7597,-5.51337 5.1999,-5.51337 0.4402,0 2.7355,1.27823 5.1006,2.8405 2.365,1.56228 6.2217,3.58728 8.5703,4.5 2.3487,0.91273 6.9319,1.6595 10.1849,1.6595 3.2531,0 7.0745,-0.44096 8.4921,-0.97992 1.4176,-0.53896 3.079,-2.08078 3.692,-3.42626 0.6131,-1.34549 0.8253,-3.59905 0.4717,-5.00792 -0.4068,-1.62092 -2.0489,-3.27886 -4.4717,-4.51486 -2.1058,-1.07431 -7.997,-3.12526 -13.0917,-4.55768 -5.0946,-1.43242 -11.2518,-3.53925 -13.6826,-4.68186 -2.4308,-1.1426 -5.93,-3.84206 -7.7761,-5.9988 -1.8461,-2.15674 -3.6338,-5.30765 -3.9727,-7.00202 -0.3388,-1.69437 -0.6117,-5.38693 -0.6063,-8.20568 0.01,-3.28364 0.8658,-6.9635 2.3924,-10.24203 1.3104,-2.81437 3.9177,-6.28794 5.794,-7.71906 1.8763,-1.43112 5.135,-3.32219 7.2416,-4.20239 2.1067,-0.8802 6.8074,-1.837 10.4462,-2.12623 4.1669,-0.33121 9.3442,0.054 13.9859,1.04061 4.0534,0.86156 9.6549,2.85747 12.4478,4.43535 2.7929,1.57787 5.5159,3.56318 6.0512,4.41178 0.7287,1.15532 0.01,2.8912 -2.8714,6.90995 -2.1146,2.95186 -4.1405,5.71846 -4.5021,6.148 -0.3615,0.42954 -4.2209,-0.91224 -8.5764,-2.98172 -6.2707,-2.97951 -9.1028,-3.76304 -13.6062,-3.76432 -4.6615,-0.001 -6.1578,0.44056 -8.297,2.45025 -1.8821,1.76812 -2.5271,3.26967 -2.3129,5.38446 0.1755,1.73188 1.3314,3.70115 2.8233,4.80967 1.3895,1.03239 7.9145,3.46569 14.5,5.40735 7.3541,2.16822 13.9515,4.83022 17.0996,6.89957 3.4903,2.29419 5.8037,4.76944 7.25,7.75725 1.5025,3.10372 2.1178,6.27111 2.1022,10.82223 -0.014,4.07991 -0.6933,7.89793 -1.8568,10.43428 -1.0092,2.2 -3.131,5.28274 -4.715,6.85053 -1.584,1.56779 -4.4752,3.66433 -6.4248,4.65897 -1.9497,0.99464 -6.2007,2.2994 -9.4468,2.89947 -3.246,0.60007 -7.0568,1.03489 -8.4683,0.96627 z M 665.102,952.12323 c -2.39935,0 -3.14542,-0.67487 -4.69841,-4.25 -1.01538,-2.3375 -9.09939,-20.8452 -17.96446,-41.12822 -8.86508,-20.28303 -16.11832,-37.29904 -16.11832,-37.81336 0,-0.51433 1.4416,-0.79413 3.20355,-0.62178 2.94192,0.28777 3.47279,0.92588 6.50024,7.81336 1.81318,4.125 9.12482,21.22488 16.24809,37.99973 l 12.95139,30.49973 2.09408,-4.99973 c 1.15174,-2.74985 8.486,-19.84973 16.29836,-37.99973 l 14.20429,-33 3.38517,-0.32344 c 2.7132,-0.25924 3.26769,-0.0173 2.79336,1.21878 -0.32549,0.84823 -8.56879,19.78128 -18.31844,42.07344 -17.38855,39.7582 -17.78104,40.53122 -20.5789,40.53122 z m -530.78119,-1 h -3 V 909.5253 867.92737 l 21.75,0.43834 c 17.12131,0.34505 22.71958,0.79745 26.30601,2.12583 2.5058,0.92812 6.23136,3.06846 8.27902,4.75632 2.04766,1.68785 4.60995,4.80737 5.69399,6.93226 1.33638,2.61952 1.97098,5.86742 1.97098,10.08755 0,4.30939 -0.65608,7.5794 -2.13271,10.6297 -1.18485,2.44758 -3.93422,5.71059 -6.1862,7.34191 -2.22942,1.61499 -6.4447,3.63148 -9.36729,4.4811 -2.92259,0.84962 -5.3138,1.75453 -5.3138,2.01092 0,0.25638 5.83477,7.98695 12.96616,17.17904 l 12.96615,16.71289 -3.70367,0.32453 c -2.9191,0.25577 -4.13,-0.18271 -5.71616,-2.06988 -1.10686,-1.31693 -7.08533,-9.00046 -13.28548,-17.07453 l -11.273,-14.68012 h -13.477 -13.477 v 17 17 z m 20.37427,-40 c 13.08253,0 18.45166,-0.38012 21.73583,-1.53885 2.39886,-0.84636 5.66086,-2.75886 7.24889,-4.25 1.58803,-1.49113 3.50691,-4.1592 4.26417,-5.92903 0.75726,-1.76984 1.37684,-5.06192 1.37684,-7.31574 0,-2.25383 -0.504,-5.08078 -1.11999,-6.28212 -0.616,-1.20134 -2.51623,-3.65909 -4.22273,-5.46166 -1.86865,-1.97385 -5.07504,-3.86312 -8.06151,-4.75 -3.50834,-1.04187 -9.87816,-1.4726 -21.77727,-1.4726 h -16.8185 v 18.5 18.5 z m 111.62573,40 h -30 v -41.5 -41.5 h 29.5 29.5 v 2.9834 2.98339 l -26.25,0.26661 -26.25,0.2666 v 16 16 l 23.75,0.2681 23.75,0.2681 v 2.4638 2.4638 l -23.75,0.2681 -23.75,0.2681 v 16.5 16.5 l 26.75,0.26633 26.75,0.26634 v 2.48366 2.48367 z m 194.5,0 h -29.5 v -41.5 -41.5 h 29.5 29.5 v 3 3 h -26.5 -26.5 v 16.5 16.5 h 23.5 23.5 v 2.5 2.5 h -23.5 -23.5 v 17 17 h 26.5 26.5 v 2.5 2.5 z m 72.5,0 h -3 V 909.5253 867.92737 l 21.75,0.43834 c 17.26052,0.34785 22.7064,0.7921 26.38341,2.1522 2.54838,0.94263 6.45048,3.26921 8.67134,5.17019 2.3457,2.00783 4.74949,5.31953 5.73585,7.90227 1.18248,3.09628 1.57373,6.39637 1.28882,10.87082 -0.2986,4.68936 -1.07365,7.41314 -2.86926,10.08345 -1.35309,2.01222 -4.38738,4.94924 -6.74287,6.52669 -2.35549,1.57746 -6.47922,3.39505 -9.16385,4.03908 l -4.88113,1.17097 13.30789,17.17092 c 13.30572,17.16812 13.30741,17.17098 10.31865,17.49139 -1.64408,0.17625 -3.53645,0.11047 -4.20526,-0.14617 -0.66881,-0.25665 -6.95481,-7.93836 -13.96889,-17.07046 l -12.75287,-16.60383 h -13.43592 -13.43591 v 17 17 z m 20.13398,-40 c 9.94619,0 18.73219,-0.47884 20.94374,-1.14143 2.09536,-0.62779 5.46598,-2.50663 7.49025,-4.17521 2.02427,-1.66857 4.29959,-4.51548 5.05626,-6.32645 0.75667,-1.81097 1.37577,-4.85283 1.37577,-6.75969 0,-1.90686 -0.47998,-4.73382 -1.06661,-6.28212 -0.58664,-1.54831 -2.04914,-3.87139 -3.25,-5.16242 -1.20087,-1.29102 -3.98339,-3.30607 -6.18339,-4.47789 -3.58399,-1.90898 -5.95005,-2.16861 -22.75,-2.49635 l -18.75,-0.36578 v 18.59367 18.59367 z m 172.48573,39.80626 -3.48192,0.30626 19.1811,-41.57447 19.18111,-41.57446 3.39418,0.26821 3.39418,0.2682 18.85582,40.82287 c 10.3707,22.45259 18.85582,41.01509 18.85582,41.25 0,0.23492 -1.50147,0.42713 -3.33661,0.42713 -3.28555,0 -3.41377,-0.17213 -8.37991,-11.25 l -5.04331,-11.25 -24.46113,-0.26712 -24.46113,-0.26712 -5.10814,11.26712 c -4.9879,11.00189 -5.19011,11.27433 -8.59006,11.57338 z m 37.7733,-27.80626 c 11.88385,0 21.60699,-0.29793 21.60699,-0.66207 0,-0.36413 -4.78759,-11.17655 -10.63908,-24.02758 -5.8515,-12.85103 -10.73459,-23.2406 -10.85132,-23.08793 -0.11673,0.15267 -4.83013,10.40258 -10.47421,22.77758 -5.64409,12.375 -10.48414,23.0625 -10.75567,23.75 -0.38574,0.97666 4.23106,1.25 21.11329,1.25 z m 97.60699,28 h -9 v -41.5 -41.5 l 18.25,0.0208 c 10.81725,0.0123 20.71567,0.5378 24.30408,1.29016 3.32975,0.69813 8.20216,2.52818 10.8276,4.06679 2.86158,1.677 5.92675,4.61594 7.6528,7.33763 1.58361,2.49709 3.43151,7.00775 4.10645,10.0237 0.932,4.16464 0.96032,7.04131 0.11775,11.96024 -0.64171,3.74624 -2.20296,8.12915 -3.70333,10.39636 -1.42665,2.15582 -4.45887,5.27064 -6.73828,6.92183 -2.2794,1.65119 -6.43322,3.68884 -9.23072,4.52812 -2.79749,0.83928 -10.14885,1.80368 -16.33635,2.14312 l -11.25,0.61716 v 11.84702 11.84703 h -9 z m 20.07901,-41.16152 11.079,-0.33848 3.421,-3.73531 c 2.72082,-2.97082 3.42099,-4.56716 3.42099,-7.79966 0,-2.23539 -0.65518,-5.33132 -1.45595,-6.87984 -0.80077,-1.54853 -3.00628,-3.55118 -4.90113,-4.45035 -2.44516,-1.1603 -6.2314,-1.63484 -13.04405,-1.63484 h -9.59887 v 12.58848 12.58847 z m 96.42099,41.16152 h -31.5 v -41.5 -41.5 h 31.5 31.50019 v 8.5 8.5 h -22.50019 -22.5 v 8 8 h 19.5 19.50009 v 8.5 8.5 h -19.50009 -19.5 v 8.5 8.5 h 22.5 22.50019 v 8 8 z m 91.51389,0 h -8.9864 l -0.2636,-32.75 -0.2637,-32.75 -12.79,-0.28018 -12.7899,-0.28017 0.2899,-8.21983 0.29,-8.21982 34.25,-0.26313 34.25,-0.26313 v 8.51313 8.51313 h -12.5 -12.5 v 33 33 z m 71.9863,0 h -9 v -41.59219 -41.59219 l 23.75,0.42468 c 19.8395,0.35475 24.5675,0.72677 28.7148,2.25939 2.95,1.09012 6.8166,3.69455 9.5277,6.41751 2.7407,2.75271 5.051,6.22649 5.7852,8.69882 0.6723,2.26381 1.2179,7.21381 1.2125,11 -0.01,5.11002 -0.6146,8.18298 -2.3571,11.92485 -1.291,2.77247 -3.8156,6.27631 -5.6101,7.78631 -1.7945,1.50999 -4.576,3.42456 -6.1811,4.25459 l -2.9184,1.50914 9.5383,13.90455 c 5.246,7.6475 9.5382,14.15204 9.5382,14.45454 0,0.3025 -4.7231,0.55 -10.4958,0.55 h -10.4957 l -8.66,-13 -8.6599,-13 h -7.3443 -7.3443 v 13 13 z m 20.4167,-42.05644 c 5.5458,-0.0311 11.6427,-0.59355 13.5487,-1.25 1.98,-0.68197 4.4446,-2.64999 5.75,-4.59144 1.2565,-1.86884 2.2846,-4.47079 2.2846,-5.78212 0,-1.31133 -0.6196,-3.86724 -1.377,-5.6798 -0.863,-2.06545 -2.6924,-3.91977 -4.9011,-4.96788 -2.6646,-1.26442 -6.3533,-1.67232 -15.123,-1.67232 h -11.5989 v 11.33333 c 0,6.23334 0.3,11.63334 0.6667,12 0.3666,0.36667 5.2041,0.64127 10.75,0.61023 z M 764.32081,785.12323 h -202 v -202 -202 h 202 202 v 202 202 z m 0,-16 h 187.00526 l -0.25263,-186.25 -0.25263,-186.25 h -186.5 -186.5 l -0.25263,186.25 -0.25263,186.25 z m -35.5,-92 c -26.44444,0 -30.5,-0.19945 -30.5,-1.5 0,-1.22222 1.66667,-1.5 9,-1.5 h 9 v -91 -91 h -9 c -8.33333,0 -9,-0.14815 -9,-2 0,-1.96785 0.65504,-1.99944 40.75,-1.96511 29.85624,0.0256 42.75499,0.39806 48.25,1.39341 4.125,0.74719 9.93466,2.32837 12.91036,3.51373 2.97569,1.18536 7.94628,3.93405 11.04574,6.1082 3.09947,2.17415 7.2957,6.13015 9.32497,8.7911 2.02928,2.66096 4.55888,6.82273 5.62136,9.24839 1.06247,2.42565 2.48372,7.2538 3.15833,10.72921 0.73247,3.77344 0.99276,9.63207 0.64616,14.54342 -0.32073,4.5449 -1.53142,10.76629 -2.70607,13.90583 -1.16912,3.12475 -4.07081,8.32365 -6.44821,11.55311 -2.67119,3.62856 -6.75421,7.46709 -10.68759,10.04764 -3.50078,2.29673 -9.96505,5.35797 -14.36505,6.80275 -7.24954,2.38045 -9.85269,2.67072 -27.75,3.09435 -19.5937,0.46379 -19.75,0.45074 -19.75,-1.64927 0,-2.02615 0.46635,-2.11676 10.89466,-2.11676 8.0256,0 12.57949,-0.52039 17.29243,-1.97607 3.51876,-1.08683 8.567,-3.41291 11.21831,-5.16907 2.65131,-1.75615 6.33328,-5.25442 8.18216,-7.77393 1.84888,-2.51951 4.38103,-7.50593 5.62698,-11.08093 1.8226,-5.22955 2.26538,-8.64999 2.26538,-17.5 0,-8.83867 -0.44689,-12.29848 -2.27442,-17.60856 -1.25094,-3.63471 -3.61083,-8.71586 -5.24422,-11.29144 -1.63339,-2.57559 -5.00747,-6.66328 -7.49796,-9.08376 -2.49049,-2.42047 -7.10107,-5.66433 -10.24574,-7.20855 -5.40495,-2.65417 -6.57876,-2.82616 -21.46758,-3.14555 l -15.75,-0.33786 v 91.08786 91.08786 h 9 c 7.33333,0 9,0.27778 9,1.5 0,1.30055 -4.05556,1.5 -30.5,1.5 z"
     id="path104"
     inkscape:connector-curvature="0" />
  <path
     style="fill:#93bf4d;fill-opacity:0.99607843"
     d="m 765.16833,997.25197 c -421.33333,0 -633,-0.3344 -633,-1 0,-0.66561 211.66667,-1 633,-1 421.33347,0 633.00017,0.33439 633.00017,1 0,0.6656 -211.6667,1 -633.00017,1 z M 856.3049,678.10795 c -2.55011,0.38478 -7.5392,0.367 -11.08686,-0.0395 -3.9184,-0.449 -8.88229,-1.93639 -12.64612,-3.78932 -4.06093,-1.99919 -8.21292,-5.2122 -12.04971,-9.32466 -3.68792,-3.95288 -7.39227,-9.40618 -10.01163,-14.73847 -2.28677,-4.65521 -6.28317,-14.08902 -8.88089,-20.96402 -2.59772,-6.875 -6.03977,-15.12526 -7.649,-18.33392 -1.60923,-3.20865 -4.73647,-7.79818 -6.94942,-10.19895 -2.21295,-2.40077 -5.49649,-4.85115 -7.29676,-5.44529 -1.80026,-0.59414 -4.30001,-1.278 -5.555,-1.51969 -1.25499,-0.24169 -2.49427,-0.65191 -2.75397,-0.91161 -0.2597,-0.2597 2.1404,-1.23167 5.33355,-2.15995 4.26967,-1.24122 8.00632,-1.55048 14.12315,-1.16886 6.18881,0.3861 9.68889,1.1899 13.6763,3.14075 2.94738,1.44202 7.40511,4.80945 9.90608,7.48319 2.50096,2.67373 5.89783,7.53691 7.5486,10.80706 1.65076,3.27015 5.32056,12.63342 8.15511,20.80727 2.83455,8.17385 6.46578,17.46072 8.0694,20.63748 1.60363,3.17677 4.38154,7.44548 6.17314,9.48602 1.7916,2.04055 5.05746,4.49721 7.25746,5.45925 2.2,0.96204 5.6998,2.01148 7.77732,2.3321 2.07753,0.32062 5.66533,0.15874 7.97289,-0.35973 2.30756,-0.51848 4.3925,-0.74574 4.63321,-0.50503 0.24071,0.24071 -0.42209,1.38829 -1.47288,2.55019 -1.0508,1.1619 -3.64908,2.99984 -5.77397,4.08432 -2.12489,1.08448 -5.94989,2.28661 -8.5,2.67138 z"
     id="path239"
     inkscape:connector-curvature="0" />
</svg>
