<?xml version="1.0" encoding="UTF-8" standalone="no"?>
<svg
   xmlns:dc="http://purl.org/dc/elements/1.1/"
   xmlns:cc="http://creativecommons.org/ns#"
   xmlns:rdf="http://www.w3.org/1999/02/22-rdf-syntax-ns#"
   xmlns:svg="http://www.w3.org/2000/svg"
   xmlns="http://www.w3.org/2000/svg"
   xmlns:sodipodi="http://sodipodi.sourceforge.net/DTD/sodipodi-0.dtd"
   xmlns:inkscape="http://www.inkscape.org/namespaces/inkscape"
   version="1.0"
   width="768"
   height="768"
   viewBox="0 0 7680 7680"
   preserveAspectRatio="xMidYMid meet"
   id="svg66"
   sodipodi:docname="petrus3.svg"
   inkscape:version="0.92.2 2405546, 2018-03-11">
  <metadata
     id="metadata72">
    <rdf:RDF>
      <cc:Work
         rdf:about="">
        <dc:format>image/svg+xml</dc:format>
        <dc:type
           rdf:resource="http://purl.org/dc/dcmitype/StillImage" />
        <dc:title></dc:title>
      </cc:Work>
    </rdf:RDF>
  </metadata>
  <defs
     id="defs70" />
  <sodipodi:namedview
     pagecolor="#ffffff"
     bordercolor="#666666"
     borderopacity="1"
     objecttolerance="10"
     gridtolerance="10"
     guidetolerance="10"
     inkscape:pageopacity="0"
     inkscape:pageshadow="2"
     inkscape:window-width="1920"
     inkscape:window-height="1040"
     id="namedview68"
     showgrid="false"
     inkscape:zoom="1.2291667"
     inkscape:cx="252.46837"
     inkscape:cy="389.37973"
     inkscape:window-x="0"
     inkscape:window-y="20"
     inkscape:window-maximized="0"
     inkscape:current-layer="svg66" />
  <g
     id="layer101"
     style="fill:#0e0e0e;stroke:none">
    <path
       d="M 0,3840 V 0 H 3840 7680 V 3840 7680 H 3840 0 Z m 5412,1967 c 74,-33 143,-104 181,-185 l 32,-67 v -415 -415 l -38,-3 -37,-3 v 408 c 1,287 -3,418 -11,443 -22,65 -85,136 -154,173 -58,31 -182,30 -245,-1 -57,-28 -115,-83 -143,-136 -21,-40 -22,-52 -25,-463 l -3,-423 h -35 -35 l 3,428 3,427 27,55 c 48,98 150,180 248,201 63,14 176,2 232,-24 z m 953,3 c 61,-30 126,-95 157,-157 17,-35 24,-70 26,-130 5,-109 -25,-180 -109,-258 -53,-49 -86,-68 -233,-136 -58,-26 -111,-71 -132,-110 -34,-67 -9,-175 50,-214 74,-49 158,-37 224,32 36,37 48,44 69,38 21,-5 24,-10 18,-33 -3,-15 -21,-42 -38,-60 -128,-133 -352,-80 -403,95 -39,133 31,246 195,320 128,57 161,76 208,123 61,60 83,109 83,190 0,111 -54,195 -155,241 -53,25 -157,25 -210,0 -56,-25 -129,-109 -145,-165 -7,-26 -14,-46 -16,-46 -1,0 -14,4 -28,10 -83,31 61,238 195,279 59,18 188,8 244,-19 z M 1440,5640 v -190 h 108 c 59,0 133,-6 164,-14 107,-25 202,-106 250,-212 18,-39 22,-68 23,-139 0,-82 -3,-96 -32,-155 -38,-77 -97,-137 -173,-177 -53,-27 -60,-28 -232,-31 l -178,-4 v 556 556 h 35 35 z m 1380,155 v -35 h -245 -245 v -225 -225 h 245 245 v -35 -35 h -245 -245 v -225 -225 h 245 245 v -35 -35 h -280 -280 v 555 555 h 280 280 z m 610,13 c 0,-13 0,-247 1,-520 l 2,-498 h 138 139 v -35 -35 h -310 -310 v 35 35 h 140 140 v 520 520 h 30 c 24,0 30,-4 30,-22 z m 630,-168 v -190 h 99 99 l 88,138 c 169,265 151,242 195,242 21,0 39,-3 39,-6 0,-4 -52,-87 -115,-184 -63,-98 -117,-184 -120,-191 -3,-9 11,-20 40,-33 65,-26 145,-103 180,-173 28,-53 30,-66 30,-163 0,-95 -3,-110 -27,-156 -36,-69 -111,-142 -178,-173 -51,-24 -67,-26 -227,-29 l -173,-4 v 556 556 h 35 35 z M 3040,4464 c 21,-20 44,-50 51,-67 11,-32 12,-32 78,-32 79,0 128,-21 216,-94 65,-55 75,-59 75,-34 0,9 11,35 25,59 40,68 120,81 203,33 18,-10 39,-19 45,-19 7,0 38,-11 70,-24 45,-19 57,-21 57,-9 0,27 28,69 55,81 61,28 142,6 235,-62 71,-52 125,-108 209,-217 67,-86 69,-88 86,-69 10,11 23,20 30,20 6,0 -5,33 -27,76 -32,65 -38,86 -38,141 0,55 3,67 26,90 22,22 32,25 79,21 61,-5 136,-46 203,-110 23,-22 42,-38 42,-36 0,2 -7,21 -15,43 -21,60 -19,74 18,91 31,15 36,15 78,-5 58,-27 192,-134 257,-205 115,-126 134,-245 46,-282 -51,-21 -63,-5 -25,34 61,60 32,144 -85,251 -63,57 -191,151 -207,151 -14,0 -1,-42 60,-189 59,-142 61,-166 13,-166 -26,0 -52,43 -91,148 -48,127 -277,287 -332,232 -41,-40 -13,-118 87,-244 37,-47 65,-89 63,-95 -9,-26 -35,-29 -80,-7 -42,21 -87,22 -87,3 0,-4 14,-27 31,-52 34,-50 35,-83 3,-88 -26,-4 -59,35 -73,84 -15,56 -110,184 -206,279 -97,96 -182,149 -231,143 -38,-4 -59,-43 -50,-90 6,-32 10,-36 46,-41 49,-6 157,-56 205,-94 89,-69 85,-173 -5,-173 -71,0 -235,130 -285,226 -11,22 -29,47 -40,56 -18,15 -97,48 -115,48 -4,0 -1,-30 7,-67 43,-210 55,-250 83,-292 23,-34 27,-47 19,-62 -16,-31 -44,-22 -106,34 -32,28 -63,57 -69,62 -6,6 -88,85 -181,176 -177,173 -250,224 -309,217 -38,-4 -59,-43 -50,-90 6,-32 10,-36 46,-41 47,-6 160,-57 207,-93 58,-44 83,-125 46,-155 -27,-23 -96,-15 -149,16 -67,39 -159,137 -194,209 -31,61 -37,95 -21,125 7,12 4,30 -10,61 -36,80 -81,91 -136,34 -55,-59 -77,-110 -144,-342 l -18,-63 72,7 c 85,7 224,-14 313,-48 113,-43 186,-145 169,-235 -8,-42 -56,-98 -106,-124 -121,-61 -370,-72 -557,-24 -185,48 -345,167 -392,293 -44,118 -19,157 97,150 103,-6 211,-67 249,-140 24,-46 15,-55 -19,-17 -79,90 -191,142 -252,119 -21,-8 -25,-16 -25,-49 0,-99 76,-184 231,-260 141,-68 237,-91 380,-91 138,0 212,19 268,67 72,61 64,142 -21,217 -63,57 -127,77 -267,84 l -113,5 72,-92 c 91,-115 130,-145 130,-101 0,28 18,25 26,-4 23,-93 -81,-42 -206,99 -29,33 -56,63 -60,68 -3,4 -21,2 -38,-4 -27,-9 -37,-8 -58,6 -34,22 -27,49 13,55 l 32,5 -76,95 c -117,146 -237,261 -312,298 -106,53 -191,37 -191,-35 0,-37 53,-127 90,-155 33,-24 38,-38 15,-38 -26,0 -93,69 -119,123 -36,71 -35,128 2,157 24,20 36,22 104,18 144,-8 264,-95 433,-313 53,-67 71,-84 73,-70 7,45 64,237 83,282 63,144 157,191 239,117 z m 2245,-123 c 17,-10 53,-38 80,-63 l 50,-45 2,36 c 2,43 40,81 82,81 50,0 129,-62 212,-166 46,-59 61,-94 39,-94 -5,0 -10,4 -10,8 0,12 -146,168 -178,190 -45,32 -69,36 -82,12 -14,-27 11,-85 92,-208 49,-75 60,-97 51,-110 -5,-10 -18,-18 -27,-20 -9,-2 -28,-15 -42,-29 -23,-22 -31,-25 -72,-19 -75,10 -132,45 -223,136 -93,92 -129,153 -129,217 0,77 85,118 155,74 z M 4094,3506 c 296,-139 513,-303 580,-437 l 26,-53 v -413 c 0,-445 1,-451 52,-487 69,-48 168,20 138,95 -11,26 -46,49 -75,49 -24,0 -54,-36 -48,-59 6,-25 41,-57 51,-46 4,4 1,10 -5,12 -15,5 -17,39 -4,47 32,20 57,-39 26,-64 -20,-17 -45,-9 -68,22 -17,23 -19,33 -11,55 14,42 54,57 98,39 62,-26 75,-92 29,-146 -25,-30 -30,-32 -81,-28 -43,4 -58,10 -78,33 -20,24 -24,25 -23,9 1,-10 1,-79 1,-151 l -2,-133 -162,-2 -163,-3 48,-28 c 38,-23 147,-67 164,-67 1,0 3,7 3,16 0,9 7,14 18,12 31,-6 19,-33 -17,-36 -37,-4 -67,6 -154,50 -58,29 -59,29 -55,7 2,-17 24,-34 86,-66 74,-39 90,-43 153,-43 69,0 136,19 151,43 23,36 -4,86 -28,53 -7,-10 -17,-15 -23,-11 -17,10 -13,40 9,60 16,15 26,17 48,9 53,-19 37,-107 -27,-146 -30,-19 -50,-23 -121,-23 -80,0 -89,2 -167,42 -83,43 -83,43 -83,18 0,-13 5,-27 10,-30 15,-9 12,-25 -5,-25 -8,0 -15,6 -15,14 0,21 -116,76 -162,76 -21,0 -38,5 -38,11 0,19 98,1 147,-27 24,-13 45,-24 47,-24 2,0 1,11 -1,24 -6,29 -94,72 -165,82 -64,9 -149,-18 -182,-57 -30,-35 -33,-49 -11,-49 21,0 19,-38 -2,-42 -15,-3 -13,-9 14,-36 25,-26 40,-32 73,-32 68,0 109,57 79,111 -13,26 -49,39 -71,27 -22,-11 -24,-48 -3,-48 8,0 15,7 15,15 0,25 19,17 26,-10 8,-31 -10,-55 -40,-55 -31,0 -46,19 -46,56 0,61 76,86 119,40 28,-30 31,-89 5,-117 -38,-42 -142,-41 -176,1 -19,24 -22,22 -11,-5 3,-10 24,-25 47,-35 39,-18 40,-19 16,-28 -14,-6 -32,-13 -41,-15 -8,-3 -23,-20 -31,-38 l -16,-33 -15,36 c -12,29 -22,37 -51,42 -36,7 -51,26 -20,26 18,0 74,53 74,71 0,6 -9,0 -20,-14 -41,-51 -143,-53 -182,-4 -43,54 -2,142 64,135 61,-6 92,-96 38,-113 -45,-14 -80,18 -59,57 10,19 11,19 24,1 10,-13 17,-15 25,-7 16,16 2,41 -25,47 -60,11 -90,-82 -39,-122 35,-27 93,-27 128,0 30,24 33,37 9,55 -17,13 -17,15 1,29 45,34 -32,97 -137,111 -75,11 -217,-46 -217,-87 0,-18 3,-18 51,6 55,28 158,47 145,27 -4,-7 -23,-12 -42,-12 -39,0 -152,-53 -161,-75 -11,-31 -23,-13 -17,25 l 7,41 -76,-41 c -88,-48 -153,-59 -239,-41 -64,14 -101,47 -113,102 -9,42 21,75 59,65 33,-8 52,-42 35,-63 -12,-13 -14,-13 -27,4 -13,17 -14,17 -27,0 -7,-10 -11,-27 -8,-38 10,-36 50,-52 137,-57 79,-3 83,-3 173,42 74,36 92,49 90,66 -1,11 -4,19 -7,18 -3,-2 -36,-18 -75,-37 -38,-19 -91,-36 -117,-39 -44,-4 -48,-3 -48,17 0,24 25,29 33,7 5,-12 13,-13 44,-4 46,12 149,63 158,78 4,7 -46,10 -149,10 h -156 v 132 131 l -22,-21 c -51,-47 -146,-57 -193,-20 -34,27 -64,92 -65,139 0,46 31,135 74,213 48,88 68,155 64,223 -3,57 -4,58 -31,55 -30,-3 -48,21 -29,40 21,21 60,0 72,-38 22,-66 6,-145 -55,-273 -30,-64 -45,-103 -33,-87 12,15 43,54 70,85 68,79 88,148 88,303 0,106 -2,119 -15,108 -21,-18 -47,-5 -43,22 2,17 10,23 28,23 44,0 50,-31 49,-249 -1,-214 -3,-234 -26,-215 -10,9 -17,9 -25,1 -17,-17 -1,-45 22,-39 14,4 20,0 21,-11 4,-47 5,-82 2,-82 -1,0 -17,9 -35,20 -43,26 -88,25 -122,-1 -48,-38 -60,-81 -47,-171 1,-3 12,-20 26,-36 29,-34 70,-47 120,-38 36,7 95,50 95,69 0,6 -10,1 -22,-10 -65,-58 -148,-46 -177,26 -17,41 -3,80 39,109 72,48 148,-33 90,-96 -28,-29 -58,-28 -72,3 -10,21 -9,29 5,43 16,15 18,15 34,-1 16,-15 16,-18 -2,-37 -10,-11 -13,-20 -7,-20 15,0 52,40 52,57 0,20 -37,53 -59,53 -35,0 -74,-43 -73,-80 1,-41 27,-69 76,-80 34,-8 40,-5 77,29 32,31 39,45 39,77 1,21 1,204 0,405 -1,334 1,371 18,415 52,137 214,280 466,413 110,59 245,120 263,121 6,0 63,-24 127,-54 z m 716,-631 c 19,-22 -6,-48 -38,-40 l -24,6 5,-123 c 5,-144 24,-214 71,-266 18,-20 49,-59 70,-85 20,-27 36,-46 36,-42 0,4 -17,39 -38,78 -52,97 -74,167 -76,242 -1,70 20,108 58,103 32,-5 28,-43 -4,-42 -32,2 -40,-11 -40,-64 0,-55 31,-145 86,-252 57,-110 70,-192 41,-251 -10,-21 -33,-51 -50,-65 -27,-23 -38,-26 -87,-22 -52,4 -109,30 -110,51 0,4 13,-2 30,-14 19,-14 49,-24 82,-26 47,-4 56,-1 81,22 31,30 51,71 43,91 -3,8 -1,16 4,19 10,6 -1,51 -20,82 -33,52 -108,68 -153,33 -14,-11 -28,-20 -31,-20 -3,0 -6,23 -6,50 0,49 1,50 26,44 23,-6 25,-4 22,17 -2,18 -9,23 -26,22 l -22,-3 v 219 c 0,186 2,222 16,235 19,20 38,20 54,1 z"
       id="path2"
       style="fill:#000000"
       inkscape:connector-curvature="0" />
    <path
       d="m 1440,5086 v -296 h 118 c 141,0 194,15 262,77 65,58 94,127 94,218 0,86 -25,146 -84,205 -67,67 -114,83 -262,88 l -128,5 z"
       id="path4"
       inkscape:connector-curvature="0" />
    <path
       d="m 4073,5373 c -10,-4 -13,-72 -13,-295 v -290 l 133,4 c 149,4 185,16 253,85 141,144 100,381 -82,472 -33,16 -67,21 -160,25 -66,2 -125,2 -131,-1 z"
       id="path6"
       inkscape:connector-curvature="0" />
    <path
       d="m 3560,4274 c -38,-26 -50,-45 -50,-81 0,-29 15,-48 109,-146 60,-61 112,-109 115,-106 9,8 -11,136 -35,229 -28,109 -77,145 -139,104 z"
       id="path8"
       inkscape:connector-curvature="0" />
    <path
       d="m 3180,4161 c 0,-17 100,-119 147,-150 49,-33 60,-36 81,-22 33,20 -51,112 -145,160 -44,22 -83,28 -83,12 z"
       id="path10"
       inkscape:connector-curvature="0" />
    <path
       d="m 4000,4130 c 41,-52 117,-119 157,-138 26,-12 35,-13 47,-2 14,11 14,15 -2,42 -34,59 -153,138 -207,138 h -27 z"
       id="path12"
       inkscape:connector-curvature="0" />
    <path
       d="m 5196,4314 c -25,-64 54,-181 194,-289 76,-58 160,-83 160,-46 0,17 -175,245 -218,283 -69,62 -124,83 -136,52 z"
       id="path14"
       inkscape:connector-curvature="0" />
    <path
       d="m 3805,3456 c -272,-134 -463,-284 -526,-412 l -24,-49 -3,-557 -3,-558 h 711 710 v 565 c 0,546 -1,567 -20,605 -44,87 -200,225 -360,320 -77,46 -307,160 -322,160 -7,0 -80,-33 -163,-74 z m 290,-116 c 231,-113 386,-232 443,-338 l 32,-60 v -476 -476 h -610 -610 v 475 476 l 24,47 c 64,126 225,248 486,368 52,23 99,43 104,43 4,1 64,-26 131,-59 z"
       id="path16"
       inkscape:connector-curvature="0" />
    <path
       d="m 3839,3299 c -219,-106 -379,-230 -427,-330 -22,-45 -22,-53 -22,-492 v -447 h 570 570 v 447 c 0,437 0,448 -22,491 -53,111 -254,259 -509,374 l -37,17 z m 143,-201 c 43,-13 97,-63 82,-78 -11,-11 -54,-2 -54,11 0,35 -163,57 -226,31 -45,-19 -63,-56 -44,-89 34,-61 189,-69 321,-18 21,8 136,-152 120,-168 -8,-8 -21,-2 -44,21 -30,29 -37,32 -62,22 -16,-6 -59,-12 -97,-13 -37,-1 -68,-3 -68,-4 0,-2 17,-11 39,-22 43,-22 67,-66 56,-103 -8,-23 -7,-23 13,-5 31,28 52,27 112,-3 64,-32 133,-102 161,-163 24,-54 24,-139 0,-192 -10,-22 -51,-71 -91,-109 l -73,-68 -39,22 c -36,20 -49,22 -122,16 -207,-17 -226,-18 -260,-6 -104,34 -137,190 -53,254 47,36 119,39 157,6 30,-26 20,-35 -23,-19 -30,11 -39,10 -61,-5 -21,-13 -26,-25 -26,-55 0,-65 42,-81 193,-71 20,1 37,6 37,11 0,5 -4,9 -10,9 -23,0 -42,51 -43,120 -1,57 -5,71 -19,76 -18,5 -108,101 -108,114 0,20 19,18 50,-5 35,-26 70,-33 70,-15 0,6 -6,10 -14,10 -12,0 -96,100 -96,115 0,12 34,4 57,-15 48,-37 63,-21 53,55 -5,37 -10,42 -65,72 -77,40 -125,94 -125,140 0,115 135,169 302,121 z"
       id="path18"
       inkscape:connector-curvature="0" />
    <path
       d="m 4116,2598 c -9,-12 -16,-32 -16,-43 -1,-46 -16,-50 -59,-16 l -41,33 v -137 c 0,-102 4,-143 15,-165 14,-27 35,-41 35,-22 0,4 33,41 74,83 82,84 104,130 92,195 -7,35 -53,94 -75,94 -5,0 -17,-10 -25,-22 z"
       id="path20"
       inkscape:connector-curvature="0" />
    <path
       d="m 3560,1820 v -31 l 32,17 c 17,9 47,22 67,29 l 36,14 h -67 l -68,1 z"
       id="path22"
       inkscape:connector-curvature="0" />
    <path
       d="m 3855,1834 c 44,-16 85,-50 85,-71 0,-7 5,-13 10,-13 13,0 13,6 -2,29 -9,15 -9,25 0,45 l 12,26 -73,-1 h -72 z"
       id="path24"
       inkscape:connector-curvature="0" />
    <path
       d="m 3970,1837 c 0,-7 5,-18 12,-25 9,-9 9,-15 0,-24 -7,-7 -12,-21 -11,-32 0,-16 2,-17 7,-6 20,46 54,73 111,91 18,5 4,8 -46,8 -54,1 -73,-2 -73,-12 z"
       id="path26"
       inkscape:connector-curvature="0" />
    <path
       d="m 4279,1829 c 29,-10 59,-23 66,-29 10,-8 14,-3 17,20 l 5,30 -71,-1 h -71 z"
       id="path28"
       inkscape:connector-curvature="0" />
    <path
       d="m 3950,1800 c 0,-5 5,-10 10,-10 6,0 10,5 10,10 0,6 -4,10 -10,10 -5,0 -10,-4 -10,-10 z"
       id="path30"
       inkscape:connector-curvature="0" />
    <path
       d="m 4077,1678 c 2,-5 10,-8 18,-8 8,0 16,3 18,8 3,4 -5,7 -18,7 -13,0 -21,-3 -18,-7 z"
       id="path32"
       inkscape:connector-curvature="0" />
    <path
       d="m 3823,1673 c 4,-3 10,-3 14,0 3,4 0,7 -7,7 -7,0 -10,-3 -7,-7 z"
       id="path34"
       inkscape:connector-curvature="0" />
    <path
       d="m 3961,1644 c -1,-6 -13,-23 -27,-38 -32,-31 -20,-35 13,-4 13,12 23,16 23,10 0,-6 10,-17 23,-23 l 22,-12 -21,24 c -12,13 -24,31 -27,39 -3,8 -6,10 -6,4 z"
       id="path36"
       inkscape:connector-curvature="0" />
    <path
       d="m 3952,1566 c 1,-10 8,-17 13,-17 15,1 12,24 -3,29 -9,3 -13,-2 -10,-12 z"
       id="path38"
       inkscape:connector-curvature="0" />
  </g>
  <g
     id="layer102"
     style="fill:#ffdd55;stroke:none">
    <path
       d="m 5180,5831 c -98,-21 -200,-103 -248,-201 l -27,-55 -3,-427 -3,-428 h 35 35 l 3,423 c 3,411 4,423 25,463 28,53 86,108 143,136 63,31 187,32 245,1 69,-37 132,-108 154,-173 8,-25 12,-156 11,-443 v -408 l 37,3 38,3 v 415 415 l -32,67 c -38,81 -107,152 -181,185 -56,26 -169,38 -232,24 z"
       id="path41"
       style="fill:#ffdd55"
       inkscape:connector-curvature="0" />
    <path
       d="m 6121,5829 c -100,-30 -220,-164 -221,-247 0,-19 30,-42 54,-42 2,0 9,20 16,46 16,56 89,140 145,165 53,25 157,25 210,0 101,-46 155,-130 155,-241 -1,-141 -69,-214 -291,-313 -164,-74 -234,-187 -195,-320 51,-175 275,-228 403,-95 17,18 35,45 38,60 6,23 3,28 -18,33 -21,6 -33,-1 -69,-38 -66,-69 -150,-81 -224,-32 -59,39 -84,147 -50,214 21,39 74,84 132,110 147,68 180,87 233,136 84,78 114,149 109,258 -4,97 -28,155 -92,220 -62,64 -124,90 -221,94 -44,1 -95,-2 -114,-8 z"
       id="path43"
       style="fill:#ffdd55"
       inkscape:connector-curvature="0" />
    <path
       d="m 1370,5274 v -556 l 178,4 c 172,3 179,4 232,31 76,40 135,100 173,177 29,59 32,73 32,155 -1,71 -5,100 -23,139 -48,106 -143,187 -250,212 -31,8 -105,14 -164,14 h -108 v 190 190 h -35 -35 z m 371,79 c 26,-12 66,-40 89,-63 59,-59 84,-119 84,-205 0,-91 -29,-160 -94,-218 -68,-62 -121,-77 -262,-77 h -118 v 296 297 l 128,-5 c 99,-4 137,-9 173,-25 z"
       id="path45"
       style="fill:#ffdd55"
       inkscape:connector-curvature="0" />
    <path
       d="m 2260,5275 v -555 h 280 280 v 35 35 h -245 -245 v 225 225 h 245 245 v 35 35 h -245 -245 v 225 225 h 245 245 v 35 35 h -280 -280 z"
       id="path47"
       style="fill:#ffdd55"
       inkscape:connector-curvature="0" />
    <path
       d="m 3370,5310 v -520 h -140 -140 v -35 -35 h 310 310 v 35 35 h -139 -138 l -2,498 c -1,273 -1,507 -1,520 0,18 -6,22 -30,22 h -30 z"
       id="path49"
       style="fill:#ffdd55"
       inkscape:connector-curvature="0" />
    <path
       d="m 3990,5274 v -556 l 173,4 c 160,3 176,5 227,29 67,31 142,104 178,173 24,46 27,61 27,156 0,97 -2,110 -30,163 -35,70 -115,147 -180,173 -29,13 -43,24 -40,33 3,7 57,93 120,191 63,97 115,180 115,184 0,3 -18,6 -39,6 -44,0 -26,23 -195,-242 l -88,-138 h -99 -99 v 190 190 h -35 -35 z m 374,75 c 182,-91 223,-328 82,-472 -68,-69 -104,-81 -253,-85 l -133,-4 v 290 c 0,223 3,291 13,295 6,3 65,3 131,1 93,-4 127,-9 160,-25 z"
       id="path51"
       style="fill:#ffdd55"
       inkscape:connector-curvature="0" />
    <path
       d="m 2904,4481 c -39,-24 -75,-71 -103,-134 -19,-45 -76,-237 -83,-282 -2,-14 -20,3 -73,70 -169,218 -289,305 -433,313 -68,4 -80,2 -104,-18 -37,-29 -38,-86 -2,-157 26,-54 93,-123 119,-123 23,0 18,14 -15,38 -37,28 -90,118 -90,155 0,72 85,88 191,35 75,-37 195,-152 312,-298 l 76,-95 -32,-5 c -40,-6 -47,-33 -13,-55 21,-14 31,-15 58,-6 17,6 35,8 38,4 4,-5 31,-35 60,-68 125,-141 229,-192 206,-99 -8,29 -26,32 -26,4 0,-44 -39,-14 -130,101 l -72,92 113,-5 c 140,-7 204,-27 267,-84 85,-75 93,-156 21,-217 -56,-48 -130,-67 -268,-67 -143,0 -239,23 -380,91 -155,76 -231,161 -231,260 0,33 4,41 25,49 61,23 173,-29 252,-119 34,-38 43,-29 19,17 -38,73 -146,134 -249,140 -116,7 -141,-32 -97,-150 47,-126 207,-245 392,-293 187,-48 436,-37 557,24 50,26 98,82 106,124 17,90 -56,192 -169,235 -89,34 -228,55 -313,48 l -72,-7 18,63 c 67,232 89,283 144,342 55,57 100,46 136,-34 14,-31 17,-49 10,-61 -16,-30 -10,-64 21,-125 35,-72 127,-170 194,-209 53,-31 122,-39 149,-16 37,30 12,111 -46,155 -47,36 -160,87 -207,93 -36,5 -40,9 -46,41 -9,47 12,86 50,90 59,7 132,-44 309,-217 93,-91 175,-170 181,-176 6,-5 37,-34 69,-62 62,-56 90,-65 106,-34 8,15 4,28 -19,62 -28,42 -40,82 -83,292 -8,37 -11,67 -7,67 18,0 97,-33 115,-48 11,-9 29,-34 40,-56 50,-96 214,-226 285,-226 90,0 94,104 5,173 -48,38 -156,88 -205,94 -36,5 -40,9 -46,41 -9,47 12,86 50,90 49,6 134,-47 231,-143 96,-95 191,-223 206,-279 14,-49 47,-88 73,-84 32,5 31,38 -3,88 -17,25 -31,48 -31,52 0,19 45,18 87,-3 45,-22 71,-19 80,7 2,6 -26,48 -63,95 -75,94 -103,149 -104,196 0,99 114,73 253,-57 59,-56 78,-81 96,-127 39,-105 65,-148 91,-148 48,0 46,24 -13,166 -61,147 -74,189 -60,189 16,0 144,-94 207,-151 117,-107 146,-191 85,-251 -38,-39 -26,-55 25,-34 88,37 69,156 -46,282 -65,71 -199,178 -257,205 -42,20 -47,20 -78,5 -37,-17 -39,-31 -18,-91 8,-22 15,-41 15,-43 0,-2 -19,14 -42,36 -67,64 -142,105 -203,110 -47,4 -57,1 -79,-21 -23,-23 -26,-35 -26,-90 0,-55 6,-76 38,-141 22,-43 33,-76 27,-76 -7,0 -20,-9 -30,-20 -17,-19 -19,-17 -86,69 -84,109 -138,165 -209,217 -93,68 -174,90 -235,62 -27,-12 -55,-54 -55,-81 0,-12 -12,-10 -57,9 -32,13 -63,24 -70,24 -6,0 -27,9 -45,19 -83,48 -163,35 -203,-33 -14,-24 -25,-50 -25,-59 0,-25 -10,-21 -75,34 -88,73 -137,94 -216,94 -66,0 -67,0 -78,32 -7,17 -30,47 -51,67 -46,42 -87,47 -136,17 z m 750,-213 c 17,-16 32,-47 45,-98 24,-93 44,-221 35,-229 -3,-3 -55,45 -115,106 -94,98 -109,117 -109,146 0,36 12,55 50,81 34,22 64,20 94,-6 z m -391,-119 c 94,-48 178,-140 145,-160 -21,-14 -32,-11 -81,22 -47,31 -147,133 -147,150 0,16 39,10 83,-12 z m 800,0 c 57,-29 118,-80 139,-117 16,-27 16,-31 2,-42 -12,-11 -21,-10 -47,2 -40,19 -116,86 -157,138 l -32,40 h 27 c 14,0 45,-10 68,-21 z"
       id="path53"
       style="fill:#ffdd55"
       inkscape:connector-curvature="0" />
    <path
       d="m 5161,4334 c -25,-21 -31,-33 -31,-67 0,-64 36,-125 129,-217 91,-91 148,-126 223,-136 41,-6 49,-3 72,19 14,14 33,27 42,29 9,2 22,10 27,20 9,13 -2,35 -51,110 -81,123 -106,181 -92,208 13,24 37,20 82,-12 32,-22 178,-178 178,-190 0,-4 5,-8 10,-8 22,0 7,35 -39,94 -83,104 -162,166 -212,166 -42,0 -80,-38 -82,-81 l -2,-36 -50,45 c -99,89 -149,103 -204,56 z m 100,-20 c 17,-8 49,-32 71,-52 43,-38 218,-266 218,-283 0,-5 -7,-12 -15,-15 -76,-30 -345,216 -345,315 0,52 20,62 71,35 z"
       id="path55"
       style="fill:#ffdd55"
       inkscape:connector-curvature="0" />
    <path
       d="m 3879,3525 c -269,-119 -496,-274 -585,-397 -75,-105 -75,-105 -74,-517 1,-201 1,-384 0,-405 0,-32 -7,-46 -39,-77 -37,-34 -43,-37 -77,-29 -49,11 -75,39 -76,80 -1,37 38,80 73,80 22,0 59,-33 59,-53 0,-17 -37,-57 -52,-57 -6,0 -3,9 7,20 18,19 18,22 2,37 -16,16 -18,16 -34,1 -14,-14 -15,-22 -5,-43 14,-31 44,-32 72,-3 58,63 -18,144 -90,96 -42,-29 -56,-68 -39,-109 29,-72 112,-84 177,-26 12,11 22,16 22,10 0,-19 -59,-62 -95,-69 -50,-9 -91,4 -120,38 -14,16 -25,33 -26,36 -13,90 -1,133 47,171 34,26 79,27 122,1 18,-11 34,-20 35,-20 3,0 2,35 -2,82 -1,11 -7,15 -21,11 -23,-6 -39,22 -22,39 8,8 15,8 25,-1 23,-19 25,1 26,215 1,218 -5,249 -49,249 -18,0 -26,-6 -28,-23 -4,-27 22,-40 43,-22 13,11 15,-2 15,-108 0,-155 -20,-224 -88,-303 -27,-31 -58,-70 -70,-85 -12,-16 3,23 33,87 61,128 77,207 55,273 -12,38 -51,59 -72,38 -19,-19 -1,-43 29,-40 27,3 28,2 31,-55 4,-68 -16,-135 -64,-223 -43,-78 -74,-167 -74,-213 1,-47 31,-112 65,-139 47,-37 142,-27 193,20 l 22,21 v -131 -132 h 156 c 103,0 153,-3 149,-10 -9,-15 -112,-66 -158,-78 -31,-9 -39,-8 -44,4 -8,22 -33,17 -33,-7 0,-20 4,-21 48,-17 26,3 79,20 117,39 39,19 72,35 75,37 3,1 6,-7 7,-18 2,-17 -16,-30 -90,-66 -90,-45 -94,-45 -173,-42 -87,5 -127,21 -137,57 -3,11 1,28 8,38 13,17 14,17 27,0 13,-17 15,-17 27,-4 17,21 -2,55 -35,63 -38,10 -68,-23 -59,-65 12,-55 49,-88 113,-102 86,-18 151,-7 239,41 l 76,41 -7,-41 c -6,-38 6,-56 17,-25 9,22 122,75 161,75 19,0 38,5 42,12 13,20 -90,1 -145,-27 -48,-24 -51,-24 -51,-6 0,41 142,98 217,87 105,-14 182,-77 137,-111 -18,-14 -18,-16 -1,-29 24,-18 21,-31 -9,-55 -35,-27 -93,-27 -128,0 -51,40 -21,133 39,122 27,-6 41,-31 25,-47 -8,-8 -15,-6 -25,7 -13,18 -14,18 -24,-1 -21,-39 14,-71 59,-57 54,17 23,107 -38,113 -66,7 -107,-81 -64,-135 39,-49 141,-47 182,4 11,14 20,20 20,14 0,-18 -56,-71 -74,-71 -31,0 -16,-19 20,-26 29,-5 39,-13 51,-42 l 15,-36 16,33 c 8,18 23,35 31,38 9,2 27,9 41,15 24,9 23,10 -16,28 -23,10 -44,25 -47,35 -11,27 -8,29 11,5 34,-42 138,-43 176,-1 26,28 23,87 -5,117 -43,46 -119,21 -119,-40 0,-37 15,-56 46,-56 30,0 48,24 40,55 -7,27 -26,35 -26,10 0,-8 -7,-15 -15,-15 -21,0 -19,37 3,48 22,12 58,-1 71,-27 30,-54 -11,-111 -79,-111 -33,0 -48,6 -73,32 -27,27 -29,33 -14,36 21,4 23,42 2,42 -22,0 -19,14 11,49 33,39 118,66 182,57 71,-10 159,-53 165,-82 2,-13 3,-24 1,-24 -2,0 -23,11 -47,24 -49,28 -147,46 -147,27 0,-6 17,-11 38,-11 46,0 162,-55 162,-76 0,-8 7,-14 15,-14 17,0 20,16 5,25 -5,3 -10,17 -10,30 0,25 0,25 83,-18 78,-40 87,-42 167,-42 71,0 91,4 121,23 64,39 80,127 27,146 -22,8 -32,6 -48,-9 -22,-20 -26,-50 -9,-60 6,-4 16,1 23,11 24,33 51,-17 28,-53 -15,-24 -82,-43 -151,-43 -63,0 -79,4 -153,43 -62,32 -84,49 -86,66 -4,22 -3,22 55,-7 87,-44 117,-54 154,-50 36,3 48,30 17,36 -11,2 -18,-3 -18,-12 0,-9 -2,-16 -3,-16 -17,0 -126,44 -164,67 l -48,28 163,3 162,2 2,133 c 0,72 0,141 -1,151 -1,16 3,15 23,-9 20,-23 35,-29 78,-33 51,-4 56,-2 81,28 46,54 33,120 -29,146 -44,18 -84,3 -98,-39 -17,-48 43,-107 79,-77 31,25 6,84 -26,64 -13,-8 -11,-42 4,-47 6,-2 9,-8 5,-12 -10,-11 -45,21 -51,46 -6,23 24,59 48,59 29,0 64,-23 75,-49 30,-75 -69,-143 -138,-95 -51,36 -52,42 -52,487 v 413 l -26,53 c -48,96 -188,220 -367,325 -102,60 -320,166 -340,166 -7,0 -46,-16 -88,-35 z m 229,-58 c 223,-112 360,-204 460,-312 110,-117 102,-60 102,-710 v -565 h -710 -711 l 3,558 3,557 24,49 c 37,76 152,189 271,268 100,66 390,218 418,218 7,0 70,-29 140,-63 z M 3659,1835 c -20,-7 -50,-20 -67,-29 l -32,-17 v 31 30 l 68,-1 h 67 z m 289,-11 c -9,-20 -9,-30 0,-45 15,-23 15,-29 2,-29 -5,0 -10,6 -10,13 0,21 -41,55 -85,71 l -40,15 h 72 l 73,1 z m 141,17 c -57,-18 -91,-45 -111,-91 -5,-11 -7,-10 -7,6 -1,11 4,25 11,32 9,9 9,15 0,24 -29,29 -13,38 61,37 50,0 64,-3 46,-8 z m 273,-21 c -3,-23 -7,-28 -17,-20 -7,6 -37,19 -66,29 l -54,20 h 71 l 71,1 z m -392,-20 c 0,-5 -4,-10 -10,-10 -5,0 -10,5 -10,10 0,6 5,10 10,10 6,0 10,-4 10,-10 z m 143,-122 c -2,-5 -10,-8 -18,-8 -8,0 -16,3 -18,8 -3,4 5,7 18,7 13,0 21,-3 18,-7 z m -276,-5 c -4,-3 -10,-3 -14,0 -3,4 0,7 7,7 7,0 10,-3 7,-7 z m 157,-72 21,-24 -22,12 c -13,6 -23,17 -23,23 0,6 -10,2 -23,-10 -33,-31 -45,-27 -13,4 14,15 26,32 27,38 0,6 3,4 6,-4 3,-8 15,-26 27,-39 z m -19,-39 c 0,-18 -20,-15 -23,4 -3,10 1,15 10,12 7,-3 13,-10 13,-16 z"
       id="path57"
       style="fill:#ffdd55"
       inkscape:connector-curvature="0" />
    <path
       d="m 3860,3356 c -261,-120 -422,-242 -486,-368 l -24,-47 v -476 -475 h 610 610 v 476 476 l -32,60 c -37,71 -111,140 -231,220 -82,54 -324,179 -343,177 -5,0 -52,-20 -104,-43 z m 260,-74 c 194,-100 343,-221 388,-314 22,-43 22,-54 22,-491 v -447 h -570 -570 v 447 c 0,439 0,447 22,492 48,100 208,224 427,330 l 123,60 37,-17 c 20,-9 74,-36 121,-60 z"
       id="path59"
       style="fill:#ffdd55"
       inkscape:connector-curvature="0" />
    <path
       d="m 3810,3111 c -84,-18 -130,-65 -130,-134 0,-46 48,-100 125,-140 55,-30 60,-35 65,-72 10,-76 -5,-92 -53,-55 -23,19 -57,27 -57,15 0,-15 84,-115 96,-115 8,0 14,-4 14,-10 0,-18 -35,-11 -70,15 -31,23 -50,25 -50,5 0,-13 90,-109 108,-114 14,-5 18,-19 19,-76 1,-69 20,-120 43,-120 6,0 10,-4 10,-9 0,-5 -17,-10 -37,-11 -151,-10 -193,6 -193,71 0,30 5,42 26,55 22,15 31,16 61,5 43,-16 53,-7 23,19 -38,33 -110,30 -157,-6 -84,-64 -51,-220 53,-254 34,-12 53,-11 260,6 73,6 86,4 122,-16 l 39,-22 73,68 c 40,38 81,87 91,109 24,53 24,138 0,192 -28,61 -97,131 -161,163 -60,30 -81,31 -112,3 -20,-18 -21,-18 -13,5 11,37 -13,81 -56,103 -22,11 -39,20 -39,22 0,1 31,3 68,4 38,1 81,7 97,13 25,10 32,7 62,-22 23,-23 36,-29 44,-21 16,16 -99,176 -120,168 -132,-51 -287,-43 -321,18 -19,33 -1,70 44,89 63,26 226,4 226,-31 0,-13 43,-22 54,-11 15,15 -39,65 -82,78 -54,15 -132,21 -172,13 z m 370,-519 c 16,-16 32,-46 36,-66 12,-65 -10,-111 -92,-195 -41,-42 -74,-79 -74,-83 0,-19 -21,-5 -35,22 -11,22 -15,63 -15,165 v 137 l 41,-33 c 43,-34 58,-30 59,16 0,24 26,65 41,65 6,0 23,-13 39,-28 z"
       id="path61"
       style="fill:#ffdd55"
       inkscape:connector-curvature="0" />
    <path
       d="m 4756,2874 c -14,-13 -16,-49 -16,-235 v -219 l 22,3 c 17,1 24,-4 26,-22 3,-21 1,-23 -22,-17 -25,6 -26,5 -26,-44 0,-27 3,-50 6,-50 3,0 17,9 31,20 45,35 120,19 153,-33 19,-31 30,-76 20,-82 -5,-3 -7,-11 -4,-19 8,-20 -12,-61 -43,-91 -25,-23 -34,-26 -81,-22 -33,2 -63,12 -82,26 -17,12 -30,18 -30,14 1,-21 58,-47 110,-51 49,-4 60,-1 87,22 83,70 86,168 9,316 -55,107 -86,197 -86,252 0,53 8,66 40,64 32,-1 36,37 4,42 -38,5 -59,-33 -58,-103 2,-75 24,-145 76,-242 21,-39 38,-74 38,-78 0,-4 -16,15 -36,42 -21,26 -52,65 -70,85 -47,52 -66,122 -71,266 l -5,123 24,-6 c 32,-8 57,18 38,40 -16,19 -35,19 -54,-1 z"
       id="path63"
       style="fill:#ffdd55"
       inkscape:connector-curvature="0" />
  </g>
</svg>
